<svg width="62" height="9" viewBox="0 0 62 9" fill="none" xmlns="http://www.w3.org/2000/svg">
    <path
        d="M8.97067 5.81758V6.83633C8.97067 8.08296 8.31066 8.90063 6.86943 8.90063H0.0269385L0.700412 7.13123H6.51922C6.97718 7.13123 7.15229 6.87654 7.15229 6.42079V5.89801C7.15229 5.42885 6.95025 5.17416 6.53269 5.17416H2.0743C0.713881 5.17416 0 4.3967 0 3.00262V2.0643C0 0.831083 0.673472 0 2.10124 0H8.68781L8.05474 1.78281H2.46491C2.02042 1.78281 1.83185 2.03749 1.83185 2.49325V2.9222C1.83185 3.39136 2.03389 3.64604 2.45144 3.64604H6.90984C8.25678 3.63264 8.97067 4.42351 8.97067 5.81758Z"
        fill="#02B795" />
    <path
        d="M19.4634 0.0133972V8.90063H17.645V5.24118H12.0956V8.90063H10.2906V0.0133972H12.0956V3.59242H17.645V0.0133972H19.4634Z"
        fill="#02B795" />
    <path
        d="M27.8819 0.0133972C30.2929 0.0133972 31.2088 0.924908 31.2088 3.36454V5.54949C31.2088 7.98912 30.2929 8.90063 27.8819 8.90063H24.2182C21.8206 8.90063 20.8912 7.98912 20.8912 5.54949V3.36454C20.8912 0.924908 21.8206 0.0133972 24.2182 0.0133972H27.8819ZM22.7096 5.40204C22.7096 6.72909 23.0598 7.13123 24.2855 7.13123H27.8011C29.0268 7.13123 29.377 6.74249 29.377 5.40204V3.49859C29.377 2.17153 29.0268 1.7694 27.8011 1.7694H24.2855C23.0598 1.7694 22.7096 2.15813 22.7096 3.49859V5.40204Z"
        fill="#02B795" />
    <path
        d="M40.3546 0.0133972V5.56289C40.3546 8.00252 39.4387 8.90063 37.0276 8.90063H32.1248L32.7578 7.10442H36.9603C38.1725 7.10442 38.5228 6.70228 38.5228 5.36182V0.0133972H40.3546Z"
        fill="#02B795" />
    <path
        d="M51.9517 8.63254L51.9382 8.60573L48.0186 0.965129C47.6145 0.214473 47.2643 0 46.6447 0H45.9443C45.4594 0 45.0957 0.214473 44.7051 0.965129L40.9202 8.39126L40.8259 8.60573L40.6777 8.90063H42.7116L42.7924 8.73978L43.6141 7.10442H49.1904L50.0929 8.82021L50.1333 8.90063H52.0998L51.9517 8.63254ZM44.3549 5.62992L46.2137 1.90345C46.2406 1.83643 46.281 1.80962 46.3484 1.80962H46.4157C46.4696 1.80962 46.4965 1.83643 46.5504 1.90345L48.4362 5.62992H44.3549Z"
        fill="#02B795" />
    <path
        d="M54.1473 3.56562V5.38864C54.1473 6.7425 54.511 7.11783 55.7367 7.11783H59.6429C60.0604 7.11783 60.249 6.91676 60.249 6.35377V5.32162C60.249 5.20097 60.2086 5.14736 60.1008 5.14736H56.3563L56.9086 3.61923H61.5555C61.798 3.61923 61.9192 3.73988 61.9192 4.00797V6.97038C61.9192 8.37786 61.4074 8.90063 60.451 8.90063H55.6694C53.2583 8.90063 52.3424 8.00253 52.3424 5.5629V3.36455C52.3424 0.924915 53.2583 0 55.6694 0H62L61.4208 1.82302H55.7367C54.511 1.82302 54.1473 2.21175 54.1473 3.56562Z"
        fill="#02B795" />
</svg>
