<svg width="163" height="163" viewBox="0 0 163 163" fill="none" xmlns="http://www.w3.org/2000/svg">
    <g filter="url(#filter0_d_4_461)">
        <path fill-rule="evenodd" clip-rule="evenodd"
            d="M132.3 81.1C132.3 91 129.5 100.3 124.6 108.2C115.6 122.7 99.5 132.3 81.2 132.3C75.5 132.3 70 131.4 64.9 129.7C44.6 122.8 30 103.7 30 81.1C30 52.9 52.9 30 81.1 30C109.4 30 132.3 52.9 132.3 81.1Z"
            fill="#ED1C24" />
        <path
            d="M124.5 108.2C115.5 122.7 99.4 132.3 81.1 132.3C75.4 132.3 69.9 131.4 64.8 129.7L46.2 111.4L74.1 109.2L101.5 104.2L104.6 81.2L124.5 108.2Z"
            fill="#D30918" />
        <path
            d="M110.6 50.8C96.3 50.8 82.1 50.8 67.8 50.7C64.2 50.7 60.1 51.2 57 53.2C55.2 54.4 53.8 56.2 52.8 58.1C50 63.7 50.4 70.2 53.5 75.6C56.3 80.5 61.5 84 67.1 84.8V79C67.1 72.4 71.7 66.9 77.8 65.4C77.8 65.3 77.8 65.1 77.8 65C77.8 63.2 79.3 61.7 81.1 61.7C82.9 61.7 84.4 63.2 84.4 65C84.4 65.1 84.4 65.3 84.4 65.4C84.4 65.4 84.5 65.4 84.6 65.5C84.6 65.5 84.7 65.5 84.8 65.6C85 65.6 85.1 65.7 85.3 65.7C85.4 65.7 85.5 65.8 85.6 65.8C85.6 65.8 85.6 65.8 85.7 65.8C87.3 66.4 90.1 67.7 92.3 70.6C92.3 70.6 94 72.7 94.7 75.6C98.1 71.7 101.5 67.7 104.9 63.8C106.8 61.6 108.7 59.4 110.6 57.2C111.1 56.6 111.6 56 112.1 55.4L116 50.7H110.6V50.8ZM77.8 62.4C77.4 62.6 76.9 62.5 76.7 62.1L74.4 58.5C74.2 58.2 74.3 57.7 74.7 57.5C75.1 57.3 75.6 57.4 75.8 57.8L78.1 61.4C78.2 61.5 78.2 61.6 78.2 61.8C78.2 62.1 78.1 62.3 77.8 62.4ZM81.1 61C80.7 61 80.3 60.7 80.3 60.3V56.1C80.3 55.7 80.7 55.4 81.1 55.4C81.5 55.4 81.9 55.7 81.9 56.1V60.3C81.9 60.6 81.6 61 81.1 61ZM87.8 58.5L85.5 62.1C85.4 62.3 85.1 62.5 84.8 62.5C84.7 62.5 84.5 62.5 84.4 62.4C84 62.2 83.9 61.8 84.1 61.4L86.4 57.8C86.6 57.5 87.1 57.3 87.5 57.5C87.9 57.7 88 58.2 87.8 58.5Z"
            fill="#FDFFFF" />
        <path
            d="M78.2 61.8C78.2 62 78.1 62.3 77.8 62.4C77.4 62.6 76.9 62.5 76.7 62.1L74.4 58.5C74.2 58.2 74.3 57.7 74.7 57.5C75.1 57.3 75.6 57.4 75.8 57.8L78.1 61.4C78.2 61.6 78.2 61.7 78.2 61.8Z"
            fill="#ED1C24" />
        <path
            d="M81.9 60.2C81.9 60.6 81.5 60.9 81.1 60.9C80.7 60.9 80.3 60.6 80.3 60.2V56C80.3 55.6 80.7 55.3 81.1 55.3C81.5 55.3 81.9 55.6 81.9 56V60.2Z"
            fill="#ED1C24" />
        <path
            d="M87.8 58.5L85.5 62.1C85.4 62.3 85.1 62.5 84.8 62.5C84.7 62.5 84.5 62.5 84.4 62.4C84 62.2 83.9 61.8 84.1 61.4L86.4 57.8C86.6 57.5 87.1 57.3 87.5 57.5C87.9 57.7 88 58.2 87.8 58.5Z"
            fill="#ED1C24" />
        <path
            d="M111.3 99.1C110.8 102.5 109.6 105.7 107.1 107.9C103.3 111.3 97.6 111.5 92.4 111.5C77 111.5 61.5 111.4 46.1 111.4C53.1 103.3 60.1 95.2 67.1 87C67.7 86.3 68.2 85.7 68.8 85.1C68.2 85.1 67.7 85 67.1 84.9V79.1C67.1 72.5 71.7 67 77.8 65.5C77.8 65.4 77.8 65.2 77.8 65.1C77.8 63.3 79.3 61.8 81.1 61.8C82.9 61.8 84.4 63.3 84.4 65.1C84.4 65.2 84.4 65.4 84.4 65.5C84.4 65.5 84.5 65.5 84.6 65.6C84.6 65.6 84.7 65.6 84.8 65.7C85 65.7 85.1 65.8 85.3 65.8C85.4 65.8 85.5 65.9 85.6 65.9C85.6 65.9 85.6 65.9 85.7 65.9C87.3 66.5 90.1 67.8 92.3 70.7C92.3 70.7 94 72.8 94.7 75.7C94.3 76.1 93.9 76.6 93.6 77C94.1 77 94.6 77.1 95 77.1C99.6 77.6 104.3 78.8 107.4 82.1C110.4 85.3 111.4 89.8 111.6 94.1C111.6 95.8 111.5 97.5 111.3 99.1Z"
            fill="#FDFFFF" />
        <path
            d="M78.2 61.8C78.2 62 78.1 62.3 77.8 62.4C77.4 62.6 76.9 62.5 76.7 62.1L74.4 58.5C74.2 58.2 74.3 57.7 74.7 57.5C75.1 57.3 75.6 57.4 75.8 57.8L78.1 61.4C78.2 61.6 78.2 61.7 78.2 61.8Z"
            fill="#00AB8E" />
        <path
            d="M87.8 58.5L85.5 62.1C85.4 62.3 85.1 62.5 84.8 62.5C84.7 62.5 84.5 62.5 84.4 62.4C84 62.2 83.9 61.8 84.1 61.4L86.4 57.8C86.6 57.5 87.1 57.3 87.5 57.5C87.9 57.7 88 58.2 87.8 58.5Z"
            fill="#00AB8E" />
        <path
            d="M81.9 60.2C81.9 60.6 81.5 60.9 81.1 60.9C80.7 60.9 80.3 60.6 80.3 60.2V56C80.3 55.6 80.7 55.3 81.1 55.3C81.5 55.3 81.9 55.6 81.9 56V60.2Z"
            fill="#00AB8E" />
        <path d="M86.4 101.5C86.4 104.4 84 106.8 81.1 106.8C78.2 106.8 75.8 104.4 75.8 101.5H86.4Z"
            fill="#00AB8E" />
        <path
            d="M99.6 96.6C99.6 98 98.4 99.2 97 99.2H65.3C63.9 99.2 62.7 98.1 62.7 96.6C62.7 96.1 62.8 95.6 63.1 95.2C63.4 94.8 63.7 94.5 64.2 94.2C65.1 93.7 65.9 93 66.5 92.2C67 91.3 67.3 90.3 67.3 89.3V79.1C67.3 72.5 71.9 67 78 65.5C78 65.4 78 65.2 78 65.1C78 63.3 79.5 61.8 81.3 61.8C83.1 61.8 84.6 63.3 84.6 65.1C84.6 65.2 84.6 65.4 84.6 65.5C84.6 65.5 84.7 65.5 84.8 65.6C84.8 65.6 84.9 65.6 85 65.7C85.2 65.7 85.3 65.8 85.5 65.8C85.6 65.8 85.7 65.9 85.8 65.9C85.8 65.9 85.8 65.9 85.9 65.9C87.5 66.5 90.3 67.8 92.5 70.7C92.5 70.7 94.2 72.8 94.9 75.7C95 76.2 95.1 76.7 95.2 77.2C95.3 77.7 95.3 78.2 95.3 78.6V89.3C95.3 91.4 96.5 93.3 98.4 94.3C98.9 94.5 99.2 94.9 99.5 95.3C99.4 95.7 99.6 96.1 99.6 96.6Z"
            fill="#00AB8E" />
    </g>
<!--    <defs>-->
<!--        <filter id="filter0_d_4_461" x="0" y="0" width="162.3" height="162.3"-->
<!--            filterUnits="userSpaceOnUse" color-interpolation-filters="sRGB">-->
<!--            <feFlood flood-opacity="0" result="BackgroundImageFix" />-->
<!--            <feColorMatrix in="SourceAlpha" type="matrix"-->
<!--                values="0 0 0 0 0 0 0 0 0 0 0 0 0 0 0 0 0 0 127 0" result="hardAlpha" />-->
<!--            <feOffset />-->
<!--            <feGaussianBlur stdDeviation="15" />-->
<!--            <feComposite in2="hardAlpha" operator="out" />-->
<!--            <feColorMatrix type="matrix" values="0 0 0 0 1 0 0 0 0 1 0 0 0 0 1 0 0 0 0.5 0" />-->
<!--            <feBlend mode="normal" in2="BackgroundImageFix" result="effect1_dropShadow_4_461" />-->
<!--            <feBlend mode="normal" in="SourceGraphic" in2="effect1_dropShadow_4_461"-->
<!--                result="shape" />-->
<!--        </filter>-->
<!--    </defs>-->
</svg>
