<?xml version="1.0" encoding="utf-8"?><!-- Generator: Adobe Illustrator 28.2.0, SVG Export Plug-In . SVG Version: 6.00 Build 0)  -->
<svg version="1.1" id="Layer_1" xmlns="http://www.w3.org/2000/svg"
    xmlns:xlink="http://www.w3.org/1999/xlink" x="0px" y="0px" viewBox="0 0 300 80"
    style="enable-background:new 0 0 300 80;" xml:space="preserve">
<g>
	<path d="M70.1,10.1h-3.8v64l-18.4-2.9V59.8l-10.8-5.2C31.6,65.8,17.7,74.8,3.7,77c-0.1,0.1-0.2,0.1-0.4,0.1H2.9V64.5
		c1.9-0.4,7.9-3.6,9.7-4.8c1.8-1.2,3.4-2.6,4.9-4.4c1.4-1.8,2.6-3.8,3.5-6c0.9-2.2,1.4-4.7,1.4-7.3c0-2.4-0.4-4.7-1.1-6.9
		c-0.7-2.2-1.8-4.1-3.1-5.8c-1.3-1.7-3-3.1-4.9-4.2c-1.9-1.1-4-1.9-6.2-2.2V10.1H0.2V1.7h69.9V10.1z M47.9,47.2V10.1H22.2
		c5.5,3,9.9,7.2,13.2,12.5c3.3,5.3,4.9,11.2,4.9,17.6c0,0.6,0,1.2,0,1.8c0,0.6,0,1.2-0.1,1.8L47.9,47.2z" />
    <path d="M150.7,27.1c0,0.3,0,0.5,0.1,0.7c0.1,0.2,0.2,0.7,0.3,1.4c0.1,0.7,0.2,1.7,0.3,3.1c0.1,1.4,0.1,3.3,0.1,5.7
		c0,5.3-1,10-3,14.2c-2,4.2-4.8,7.7-8.2,10.6c-3.4,2.9-7.4,5.1-11.8,6.7c-4.5,1.6-9.1,2.3-14.1,2.3c-6.4,0-11.8-1.3-16.3-3.9
		c-4.5-2.6-8.1-6.2-11-10.7c-2.9-4.5-5-9.9-6.3-16.2c-1.3-6.2-2.1-12.9-2.3-20.1l19.6,4.4c0,0.4,0,0.9-0.1,1.4c0,0.5-0.1,1-0.1,1.4
		c0,3.1,0.2,6.1,0.6,9c0.4,2.9,1.2,5.5,2.3,7.9c1.2,2.3,2.8,4.2,4.9,5.7c2.1,1.5,5,2.3,8.5,2.5c4.5,0,8-0.7,10.5-2.1
		c2.5-1.4,4.4-2.9,5.6-4.5c1.2-1.6,2-3.2,2.3-4.6c0.3-1.4,0.5-2.2,0.5-2.4l-26.6,2.7l4.3-32.2h-49V1.7h130v8.6H127l-0.9,4.4h47.5
		l1.6,9.7c0.4,2.3,0.7,4.8,0.8,7.5c0.1,2.6,0.2,5.5,0.2,8.5c0,6.7-0.5,13.2-1.6,19.4c-1.1,6.2-3.1,12.4-6,18.6l-18.9-6.2l2.7-6.1
		c1.3-2.9,2.4-6.6,3.4-11.1c1-4.5,1.4-9.7,1.4-15.6c0-2.5-0.1-5.1-0.3-7.7c-0.2-2.6-0.5-5.4-1-8.4L124.3,24l-1.4,7.3L150.7,27.1z" />
    <path d="M183.8,1.7h33.4v8.4H209v63.8l-18.4-2.9v-61h-6.7V1.7z" />
    <path d="M299.8,10.1h-6.2v63.8l-18.7-3V27.6c-1.9-3.7-4.4-6.7-7.4-8.9c-3-2.2-7-3.3-11.8-3.3c-3.6,0-6.6,0.8-9,2.3
		c-2.3,1.6-4,4.4-4.9,8.6h22.3c0.5,3.6,0.8,6.9,0.8,9.9c0,4.4-0.7,8.4-2.1,11.9c-1.4,3.5-3.3,6.6-5.7,9.2c-2.4,2.6-5.2,4.7-8.4,6.2
		c-3.2,1.6-6.6,2.6-10.1,3l-11.2-17.4c0.4,0.1,0.8,0.1,1.2,0.1c0.3,0,0.7,0,1.2,0c1.8,0,3.7-0.2,5.7-0.6c2-0.4,3.8-1.1,5.4-2.2
		c1.6-1.1,3-2.5,4-4.3c1-1.8,1.6-4.2,1.6-7v-1.3h-25.3v-5.3c0-2,0.3-4.5,1-7.4c0.7-2.9,2.2-5.8,4.4-8.6c2.2-2.8,5.5-5.2,9.7-7.2
		c4.2-2,9.9-3.1,16.9-3.2c9.8,0.3,17,2.6,21.7,7V1.7h24.9V10.1z" />
</g>
</svg>
