<svg width="264" height="45" viewBox="0 0 264 45" fill="none" xmlns="http://www.w3.org/2000/svg">
<rect width="264" height="45" rx="10" fill="#ED1C24"/>
<mask id="mask0_448_5" style="mask-type:alpha" maskUnits="userSpaceOnUse" x="0" y="0" width="264" height="45">
<rect width="264" height="45" rx="10" fill="#ED1C24"/>
</mask>
<g mask="url(#mask0_448_5)">
<path d="M271.369 12.2576C271.051 9.70365 269.805 7.29554 267.603 5.96197C264.053 3.81093 260.342 2.70583 256.707 2.73917C251.938 2.7829 247.482 4.78471 243.827 8.52642C239.527 13.087 236.658 19.8622 233.333 25.9389C230.008 32.0156 225.903 37.6596 220.402 38.8631C215.045 40.0502 209.268 36.8331 203.706 34.2781C197.833 31.569 191.799 29.5234 185.955 29.7317C180.111 29.9401 174.425 32.5635 170.611 38.2941C168.423 41.584 166.884 45.7973 164.479 48.7358C162.405 51.2707 156.645 57.3382 157.271 60.5533L157.656 62.5292C158.076 64.6836 160.163 66.0897 162.318 65.6698L266.117 45.4403C271.277 44.4346 274.778 39.605 274.127 34.3881L271.369 12.2576Z" fill="white" fill-opacity="0.5"/>
<path d="M82.52 -8.64251C83.9722 -6.51761 84.6323 -3.88769 83.8653 -1.43093C82.6281 2.53182 80.5783 5.8168 77.8319 8.19815C74.2285 11.3226 69.5641 12.7716 64.3473 12.3872C58.105 11.8159 51.4699 8.63684 44.9551 6.28355C38.4402 3.93025 31.6272 2.41748 26.7071 5.15764C21.9066 7.8139 19.7065 14.0495 17.2291 19.6467C14.6205 25.5654 11.4528 31.0926 6.93471 34.8053C2.41667 38.518 -3.58172 40.316 -10.2343 38.5461C-14.0521 37.5287 -17.9948 35.3896 -21.7425 34.7793C-24.9756 34.2528 -33.3091 33.5183 -34.968 30.6937L-35.9874 28.9578C-37.0989 27.0652 -36.4657 24.6299 -34.5731 23.5183L56.6165 -30.036C61.1498 -32.6983 66.9705 -31.3958 69.9368 -27.0553L82.52 -8.64251Z" fill="white" fill-opacity="0.5"/>
</g>
</svg>
