<svg width="328" height="40" viewBox="0 0 328 40" fill="none" xmlns="http://www.w3.org/2000/svg">
    <rect width="328" height="40" rx="10" fill="#02B795"/>
    <mask id="mask0_500_71" style="mask-type:alpha" maskUnits="userSpaceOnUse" x="0" y="0" width="328" height="40">
        <rect width="328" height="40" rx="10" fill="#ED1C24"/>
    </mask>
    <g mask="url(#mask0_500_71)">
        <path d="M346.197 11.9297C345.754 9.03153 344.066 6.28359 341.294 4.99453C337.615 3.28319 333.792 2.4068 330.044 2.43481C324.841 2.47369 319.981 4.25307 315.993 7.57904C311.302 11.6329 308.172 17.6553 304.545 23.0568C300.918 28.4583 296.44 33.4752 290.438 34.545C284.595 35.6002 278.292 32.7405 272.225 30.4694C265.817 28.0613 259.236 26.243 252.86 26.4282C246.485 26.6134 240.282 28.9453 236.121 34.0392C233.734 36.9636 232.055 40.7088 229.432 43.3207C229.387 43.3652 229.342 43.4093 229.296 43.453C226.705 45.9373 221.024 51.5463 221.89 55.1687C222.403 57.3117 224.582 58.7688 226.758 58.4232L341.216 40.2474C346.355 39.4314 349.706 34.8721 348.925 29.7621L346.197 11.9297Z" fill="white" fill-opacity="0.5"/>
        <path d="M85.4609 -6.32996C87.263 -4.18122 88.1045 -1.5274 87.1665 0.808362C85.8062 4.19559 83.6132 7.00908 80.7033 9.06491C76.7723 11.8422 71.684 13.1302 65.9929 12.7885C59.1831 12.2807 51.9448 9.45486 44.8377 7.36304C37.7306 5.27123 30.2982 3.92654 24.9308 6.36224C19.6939 8.72336 17.2938 14.2661 14.5912 19.2414C11.7454 24.5024 8.28971 29.4155 3.36094 32.7157C-1.56783 36.0159 -8.11153 37.6141 -15.3689 36.0408C-19.5337 35.1365 -23.8349 33.2351 -27.9233 32.6926C-31.7151 32.1895 -40.7633 31.2639 -42.8308 28.3954L-43.3271 27.7067C-44.6149 25.9201 -44.0483 23.7012 -42.0618 22.7506L57.9796 -25.1221C62.6973 -27.3797 68.9746 -25.9866 72.38 -21.9263L85.4609 -6.32996Z" fill="white" fill-opacity="0.5"/>
    </g>
</svg>
