<svg width="360" height="155" viewBox="0 0 360 155" fill="none" xmlns="http://www.w3.org/2000/svg">
<path d="M0 14.0565C3 12.3898 9.2 8.95646 10 8.55646C10.8 8.15646 14.3333 6.72313 16 6.05646L20 4.55646L27.5 2.55646C27.5 2.55646 31.425 1.45172 34 1.05646C36.1318 0.729239 39.5 0.556463 39.5 0.556463L47 0.0564633C47 0.0564633 50.6603 -0.0705792 53 0.0564633C54.9595 0.16286 56.0474 0.361201 58 0.556463C59.9526 0.751725 61.0573 0.779517 63 1.05646C67.7822 1.73819 75 4.05646 75 4.05646C75 4.05646 79.983 5.63136 83 7.05646C85.8469 8.40121 90 11.0565 90 11.0565L99 16.5565L107 22.0565L117 29.5565L126.5 36.0565L133 40.0565L137 42.0565L140 43.5565L144.5 45.5565L151.5 48.0565L157 49.5565L163 50.5565H167.5H173L179 49.5565L185 48.0565L198.5 43.5565L211.5 37.5565L224.5 32.0565C224.5 32.0565 229.014 30.3401 232 29.5565C233.741 29.0995 236.5 28.5565 236.5 28.5565C236.5 28.5565 240.158 27.9562 242.5 27.5565C245.823 26.9892 247.652 26.4496 251 26.0565C253.915 25.7141 258.5 25.5565 258.5 25.5565C258.5 25.5565 260.633 25.5565 262 25.5565C263.953 25.5565 265.057 25.3659 267 25.5565C268.982 25.7508 272 26.5565 272 26.5565C272 26.5565 275.685 27.0235 278 27.5565C281.61 28.3877 283.595 29.0963 287 30.5565C293.125 33.1832 301.5 39.5565 301.5 39.5565L313.5 49.5565L322 56.0565C324.5 57.7231 329.7 61.1565 330.5 61.5565C331.3 61.9565 335.167 63.7231 337 64.5565L344 66.5565C344 66.5565 347.328 67.3318 349.5 67.5565C352.413 67.8578 357 67.5565 357 67.5565H360V154.556L0 153.556V14.0565Z" fill="#C6F8EF"/>
<path d="M0 60C4.5 57.5 14 52.2 16 51L23.5 46.5L30 43L37 40L40 39L45 37.5L50 36.5L55 35.5L59.5 35L64 34.5H74.5L82 35L91.5 36L103 38L114.5 41L128.5 45L140.5 49.5L154.5 54.5L172 60C179.833 63.5 204.1 65.4 238.5 45C281.5 19.5 284.5 16 301.5 14C315.1 12.4 318.167 12 318 12H325L339 13.5L351.5 16.5L360 19V87.5V154.5H0V60Z" fill="#B3F2E7"/>
</svg>
