<svg fill="none" height="81" viewBox="0 0 360 81" width="360" xmlns="http://www.w3.org/2000/svg"><g clip-rule="evenodd" fill="#00ab8e" fill-opacity=".5" fill-rule="evenodd"><path d="m313.254 58.3743c13.225 8.795 34.551 13.4502 46.746 3.7556v18.8701h-360v-73.51528c20.3316-8.96327 46.2253-10.20248 67.1453-1.9414 12.3443 4.89128 22.5542 12.44768 32.7459 19.99058 3.3658 2.4912 6.7298 4.9808 10.1678 7.3725 13.849 9.6335 30.763 18.1926 49.11 17.3891 13.298-.5901 25.119-5.9572 36.882-11.2977v-.0001c3.731-1.6941 7.457-3.3855 11.221-4.9209 20.998-8.5505 47.14-12.306 67.875-3.2927 9.297 4.0529 16.576 10.2362 23.881 16.4428l.001.0001c4.564 3.8781 9.14 7.7652 14.225 11.1473z" opacity=".12"/><path d="m360 23.7874v24.3912l-4.355 32.8214h-355.645v-28.4495c1.24384-.7898 2.4777-1.5925 3.71205-2.3955l.00025-.0001.00037-.0003c3.65965-2.3806 7.32373-4.7642 11.26533-6.8265 16.1733-8.4552 36.499-11.0241 55.7994-9.4464 19.3004 1.5778 37.7806 7.0393 55.3126 13.5729 1.954.7257 3.911 1.468 5.875 2.2125 14.728 5.584 29.781 11.2913 45.951 11.0772 18.814-.2225 35.884-8.435 50.673-17.6387 3.563-2.2169 7.064-4.5113 10.565-6.8053v-.0002c11.033-7.2299 22.063-14.4571 34.982-19.2479 14.381-5.1358 30.272-7.0576 45.942-5.556 14.426 1.3825 28.154 5.6175 39.922 12.2912z" opacity=".12"/></g></svg>