<svg width="22" height="22" viewBox="0 0 22 22" fill="none" xmlns="http://www.w3.org/2000/svg">
<g clip-path="url(#clip0_480_1367)">
<path d="M19.2502 16.6158V11.9169C19.2502 7.36751 15.5497 3.66693 11.0002 3.66693C6.45083 3.66693 2.75025 7.36751 2.75025 11.9169V16.6158C1.16991 17.0237 0.000244995 18.461 0.000244995 20.1669C0.000244995 21.178 0.822495 22.0003 1.83358 22.0003H20.1669C21.178 22.0003 22.0002 21.178 22.0002 20.1669C22.0002 18.461 20.8306 17.0237 19.2502 16.6158ZM11.0002 5.50026C14.5377 5.50026 17.4169 8.37951 17.4169 11.9169V16.5003H4.58358V11.9169C4.58358 8.37951 7.46283 5.50026 11.0002 5.50026ZM1.83358 20.1669C1.83358 19.1558 2.65583 18.3336 3.66691 18.3336H18.3336C19.3447 18.3336 20.1669 19.1558 20.1669 20.1669H1.83358ZM19.0642 5.69368C18.7039 5.3371 18.7012 4.75776 19.0568 4.39751L20.4318 3.00693C20.7875 2.64668 21.3677 2.64393 21.728 2.9996C22.0882 3.35618 22.091 3.93551 21.7353 4.29576L20.3603 5.68635C20.1816 5.86785 19.9451 5.9586 19.7086 5.9586C19.4757 5.9586 19.2429 5.86968 19.0642 5.69368ZM15.2279 1.87026L15.9402 0.495264C16.173 0.0442639 16.7276 -0.129903 17.1758 0.102931C17.625 0.335764 17.801 0.888514 17.5682 1.3386L16.8559 2.7136C16.6927 3.02893 16.3728 3.2086 16.041 3.2086C15.8989 3.2086 15.755 3.1756 15.6202 3.10593C15.1711 2.8731 14.9951 2.32035 15.2279 1.87026ZM0.265162 4.29668C-0.0914217 3.93643 -0.087755 3.3571 0.272495 3.00051C0.631828 2.64393 1.21391 2.6476 1.56866 3.00785L2.94366 4.39843C3.30025 4.75868 3.29658 5.33801 2.93633 5.6946C2.7585 5.8706 2.52475 5.95951 2.29191 5.95951C2.05541 5.95951 1.81891 5.86876 1.64016 5.68726L0.265162 4.29668ZM4.43233 1.3386C4.1995 0.889431 4.3755 0.335764 4.82466 0.102931C5.27108 -0.129903 5.82658 0.0442639 6.06033 0.495264L6.77258 1.87026C7.00541 2.31943 6.82941 2.8731 6.38025 3.10593C6.24641 3.1756 6.10158 3.2086 5.9595 3.2086C5.62858 3.2086 5.30775 3.02893 5.14458 2.7136L4.43233 1.3386ZM7.33358 11.9169C7.33358 9.89476 8.97808 8.25026 11.0002 8.25026C11.5072 8.25026 11.9169 8.66001 11.9169 9.16693C11.9169 9.67385 11.5072 10.0836 11.0002 10.0836C9.98916 10.0836 9.16691 10.9058 9.16691 11.9169C9.16691 12.4238 8.75716 12.8336 8.25025 12.8336C7.74333 12.8336 7.33358 12.4238 7.33358 11.9169Z" fill="#ED1C24"/>
</g>
<defs>
<clipPath id="clip0_480_1367">
<rect width="22" height="22" fill="white"/>
</clipPath>
</defs>
</svg>
