<svg width="46" height="46" viewBox="0 0 46 46" fill="none" xmlns="http://www.w3.org/2000/svg">
<g clip-path="url(#clip0_709_245)">
<path d="M4.50047 26.4385H6.87076L11.4841 16.5305C11.9248 15.59 12.6237 14.7942 13.4994 14.2358C14.375 13.6773 15.3913 13.3792 16.4299 13.3762H21.3552L22.2745 10.0332C22.4374 9.44096 22.7899 8.91839 23.278 8.54553C23.7662 8.17267 24.363 7.97005 24.9773 7.96871H26.9289C27.5432 7.97005 28.1401 8.17267 28.6282 8.54553C29.1163 8.91839 29.4688 9.44096 29.6317 10.0332L30.5449 13.3762H41.5283C42.7139 13.3773 43.8507 13.8488 44.6891 14.6872C45.5274 15.5256 45.9989 16.6623 46 17.848V37.1222C45.9989 38.3079 45.5274 39.4446 44.6891 40.283C43.8507 41.1214 42.7139 41.5929 41.5283 41.594H39.0656C38.8894 42.6066 38.3614 43.5246 37.5747 44.1862C36.7881 44.8478 35.7931 45.2105 34.7652 45.2105C33.7374 45.2105 32.7424 44.8478 31.9558 44.1862C31.1691 43.5246 30.6411 42.6066 30.4649 41.594H15.2786C15.1011 42.6059 14.5725 43.5228 13.7858 44.1836C12.9991 44.8443 12.0046 45.2065 10.9772 45.2065C9.94982 45.2065 8.95533 44.8443 8.16861 44.1836C7.38188 43.5228 6.85329 42.6059 6.6758 41.594H4.49431C3.84441 41.5826 3.20434 41.4333 2.61649 41.1559C2.02864 40.8786 1.50642 40.4795 1.08441 39.9851C0.662405 39.4908 0.350245 38.9124 0.168604 38.2883C-0.0130372 37.6642 -0.0600135 37.0086 0.0307831 36.365V30.9082C0.0318699 29.7231 0.50313 28.5868 1.34112 27.7488C2.17912 26.9108 3.31537 26.4396 4.50047 26.4385ZM8.39964 26.4385H18.3549V18.4883H12.11L8.39964 26.4385ZM28.2875 10.3944C27.9612 8.97429 26.0116 9.41756 24.9773 9.35599C24.6683 9.35632 24.3681 9.45812 24.1226 9.64573C23.8772 9.83334 23.7001 10.0964 23.6187 10.3944L22.7979 13.3762H29.1002L28.2875 10.3944ZM44.6066 17.848C44.6066 17.0316 44.2822 16.2486 43.7049 15.6713C43.1277 15.094 42.3447 14.7697 41.5283 14.7697H23.8096V31.4992H44.6066V17.848ZM34.7765 43.8596C35.5503 43.8392 36.2856 43.5176 36.8257 42.9631C37.3658 42.4086 37.668 41.6651 37.668 40.8911C37.668 40.117 37.3658 39.3736 36.8257 38.8191C36.2856 38.2646 35.5503 37.9429 34.7765 37.9226C34.0028 37.9429 33.2675 38.2646 32.7274 38.8191C32.1873 39.3736 31.8851 40.117 31.8851 40.8911C31.8851 41.6651 32.1873 42.4086 32.7274 42.9631C33.2675 43.5176 34.0028 43.8392 34.7765 43.8596ZM34.7765 36.5271C35.8133 36.5273 36.8161 36.8964 37.6057 37.5683C38.3952 38.2402 38.92 39.171 39.0861 40.1944H41.5488C42.3652 40.1944 43.1482 39.87 43.7255 39.2927C44.3028 38.7155 44.6271 37.9325 44.6271 37.1161V32.8926H23.8096V40.2005H30.4751C30.6393 39.1773 31.1622 38.2458 31.9503 37.5728C32.7384 36.8998 33.7402 36.5291 34.7765 36.5271ZM10.9854 43.8596C11.7592 43.8392 12.4945 43.5176 13.0345 42.9631C13.5746 42.4086 13.8769 41.6651 13.8769 40.8911C13.8769 40.117 13.5746 39.3736 13.0345 38.8191C12.4945 38.2646 11.7592 37.9429 10.9854 37.9226C10.2116 37.9429 9.47637 38.2646 8.93627 38.8191C8.39618 39.3736 8.09394 40.117 8.09394 40.8911C8.09394 41.6651 8.39618 42.4086 8.93627 42.9631C9.47637 43.5176 10.2116 43.8392 10.9854 43.8596ZM4.50047 40.1944H6.68195C6.85698 39.1804 7.38456 38.2609 8.17157 37.5981C8.95859 36.9353 9.95443 36.5719 10.9834 36.5719C12.0123 36.5719 13.0081 36.9353 13.7951 37.5981C14.5822 38.2609 15.1097 39.1804 15.2848 40.1944H22.4162V14.7697H16.4299C15.6603 14.7711 14.9068 14.9902 14.2565 15.4017C13.6061 15.8131 13.0854 16.4001 12.7544 17.0948H19.0505C19.2352 17.0948 19.4124 17.1681 19.5432 17.2985C19.674 17.4289 19.7478 17.6058 19.7483 17.7905V27.1362C19.7472 27.3208 19.6733 27.4974 19.5426 27.6277C19.4119 27.758 19.2351 27.8314 19.0505 27.8319H4.50047C4.06857 27.8351 3.64207 27.9281 3.24802 28.1049C2.85398 28.2818 2.50102 28.5386 2.21154 28.8592C1.92207 29.1797 1.70241 29.557 1.56652 29.9669C1.43063 30.3769 1.38147 30.8106 1.42217 31.2406H4.36707C4.55177 31.2412 4.72872 31.3149 4.85913 31.4457C4.98954 31.5765 5.06277 31.7537 5.06277 31.9384V36.365C5.06277 36.5495 4.98947 36.7264 4.85901 36.8569C4.72854 36.9874 4.55158 37.0607 4.36707 37.0607H1.42422C1.41604 37.4699 1.48955 37.8766 1.64045 38.2571C1.79135 38.6376 2.01661 38.9841 2.30306 39.2765C2.58951 39.5689 2.93138 39.8012 3.30869 39.9599C3.686 40.1185 4.09116 40.2003 4.50047 40.2005V40.1944ZM1.42217 35.6672H3.66933V32.6341H1.42422L1.42217 35.6672ZM16.1775 31.2796H19.0505C19.2351 31.2796 19.412 31.2063 19.5425 31.0759C19.6729 30.9454 19.7462 30.7684 19.7462 30.5839C19.7462 30.3994 19.6729 30.2225 19.5425 30.092C19.412 29.9615 19.2351 29.8882 19.0505 29.8882H16.1775C15.993 29.8885 15.8161 29.9621 15.6858 30.0927C15.5556 30.2234 15.4825 30.4004 15.4828 30.5849C15.4831 30.7695 15.5566 30.9463 15.6873 31.0766C15.818 31.2069 15.993 31.2799 16.1775 31.2796ZM26.6437 5.42193V1.49403C26.634 1.31578 26.5564 1.14803 26.4268 1.02527C26.2972 0.902521 26.1255 0.834106 25.947 0.834106C25.7684 0.834106 25.5967 0.902521 25.4671 1.02527C25.3375 1.14803 25.2599 1.31578 25.2502 1.49403V5.43014C25.2451 5.52482 25.2593 5.61955 25.292 5.70855C25.3247 5.79755 25.3752 5.87895 25.4404 5.94779C25.5056 6.01663 25.5841 6.07145 25.6712 6.10892C25.7583 6.14639 25.8521 6.16571 25.947 6.16571C26.0418 6.16571 26.1356 6.14639 26.2227 6.10892C26.3098 6.07145 26.3883 6.01663 26.4535 5.94779C26.5187 5.87895 26.5692 5.79755 26.6019 5.70855C26.6346 5.61955 26.6488 5.52482 26.6437 5.43014V5.42193ZM21.78 6.03759L18.911 3.36358C18.2605 2.73766 17.2918 3.77402 17.9629 4.38968L20.836 7.0719C20.972 7.1979 21.1526 7.26469 21.3379 7.25757C21.5232 7.25045 21.6981 7.17 21.8241 7.03393C21.9501 6.89786 22.0169 6.71731 22.0098 6.532C22.0026 6.34669 21.9222 6.1718 21.7861 6.0458L21.78 6.03759ZM33.9495 4.38352C34.0169 4.32127 34.0713 4.24635 34.1097 4.16305C34.1482 4.07975 34.1698 3.9897 34.1734 3.89804C34.1771 3.80638 34.1626 3.7149 34.1308 3.62883C34.0991 3.54276 34.0507 3.46379 33.9885 3.39641C33.9262 3.32904 33.8513 3.27459 33.768 3.23616C33.6847 3.19774 33.5947 3.1761 33.503 3.17248C33.4114 3.16886 33.3199 3.18333 33.2338 3.21506C33.1477 3.24679 33.0688 3.29517 33.0014 3.35742L30.1283 6.0417C29.4572 6.64504 30.43 7.68345 31.0785 7.06779L33.9495 4.38352ZM34.7765 41.6371C34.9655 41.6271 35.1434 41.545 35.2736 41.4077C35.4038 41.2705 35.4764 41.0885 35.4764 40.8993C35.4764 40.7101 35.4038 40.5281 35.2736 40.3908C35.1434 40.2536 34.9655 40.1715 34.7765 40.1615C34.5876 40.1715 34.4097 40.2536 34.2795 40.3908C34.1493 40.5281 34.0767 40.7101 34.0767 40.8993C34.0767 41.0885 34.1493 41.2705 34.2795 41.4077C34.4097 41.545 34.5876 41.6271 34.7765 41.6371ZM10.9834 41.6371C11.1723 41.6271 11.3502 41.545 11.4804 41.4077C11.6106 41.2705 11.6832 41.0885 11.6832 40.8993C11.6832 40.7101 11.6106 40.5281 11.4804 40.3908C11.3502 40.2536 11.1723 40.1715 10.9834 40.1615C10.7944 40.1715 10.6165 40.2536 10.4863 40.3908C10.3561 40.5281 10.2835 40.7101 10.2835 40.8993C10.2835 41.0885 10.3561 41.2705 10.4863 41.4077C10.6165 41.545 10.7944 41.6271 10.9834 41.6371ZM34.0377 17.4211C35.534 17.4495 36.9594 18.0638 38.0075 19.132C39.0556 20.2001 39.6428 21.6369 39.6428 23.1334C39.6428 24.6299 39.0556 26.0667 38.0075 27.1349C36.9594 28.2031 35.534 28.8173 34.0377 28.8457C32.5415 28.8173 31.1161 28.2031 30.068 27.1349C29.0199 26.0667 28.4327 24.6299 28.4327 23.1334C28.4327 21.6369 29.0199 20.2001 30.068 19.132C31.1161 18.0638 32.5415 17.4495 34.0377 17.4211ZM34.0377 27.4523C35.1834 27.4523 36.2822 26.9971 37.0924 26.187C37.9025 25.3769 38.3576 24.2781 38.3576 23.1324C38.3576 21.9867 37.9025 20.8879 37.0924 20.0778C36.2822 19.2676 35.1834 18.8125 34.0377 18.8125C32.8918 18.8125 31.7927 19.2678 30.9824 20.0781C30.1721 20.8884 29.7168 21.9874 29.7168 23.1334C29.7168 24.2794 30.1721 25.3784 30.9824 26.1888C31.7927 26.9991 32.8918 27.4543 34.0377 27.4543V27.4523ZM31.7311 23.8301H33.342C33.4323 24.4909 32.9788 26.1266 34.0377 26.1368C35.0967 26.1471 34.6431 24.4951 34.7355 23.8301C35.3963 23.7378 37.0298 24.1913 37.0401 23.1324C37.0504 22.0735 35.3983 22.527 34.7355 22.4346C34.6431 21.7738 35.0967 20.1403 34.0377 20.13C32.9788 20.1198 33.4323 21.7718 33.342 22.4346H31.7311C31.5457 22.4346 31.368 22.5083 31.237 22.6393C31.1059 22.7704 31.0323 22.9481 31.0323 23.1334C31.0323 23.3187 31.1059 23.4965 31.237 23.6275C31.368 23.7586 31.5457 23.8322 31.7311 23.8322V23.8301Z" fill="#090364"/>
</g>
<defs>
<clipPath id="clip0_709_245">
<rect width="46" height="46" fill="white" transform="matrix(-1 0 0 1 46 0)"/>
</clipPath>
</defs>
</svg>
