<svg width="46" height="33" viewBox="0 0 46 33" fill="none" xmlns="http://www.w3.org/2000/svg">
<path fill-rule="evenodd" clip-rule="evenodd" d="M28.3831 5.89521C27.0898 4.22164 25.0627 3.14286 22.7857 3.14286C20.5087 3.14286 18.4815 4.22164 17.1883 5.89521C16.6273 2.55121 13.7162 0 10.2143 0C6.31161 0 3.14282 3.16879 3.14282 7.07143C3.14282 10.9741 6.31161 14.1429 10.2143 14.1429C12.4913 14.1429 14.5184 13.0641 15.8117 11.3905C16.3727 14.7345 19.2838 17.2857 22.7857 17.2857C26.2876 17.2857 29.1987 14.7345 29.7597 11.3905C31.053 13.0641 33.0801 14.1429 35.3571 14.1429C39.2598 14.1429 42.4285 10.9741 42.4285 7.07143C42.4285 3.16879 39.2598 0 35.3571 0C31.8552 0 28.9441 2.55121 28.3831 5.89521ZM22.7857 4.71429C25.8209 4.71429 28.2857 7.17907 28.2857 10.2143C28.2857 13.2495 25.8209 15.7143 22.7857 15.7143C19.7505 15.7143 17.2857 13.2495 17.2857 10.2143C17.2857 7.17907 19.7505 4.71429 22.7857 4.71429ZM35.3571 1.57143C38.3923 1.57143 40.8571 4.03621 40.8571 7.07143C40.8571 10.1066 38.3923 12.5714 35.3571 12.5714C32.3219 12.5714 29.8571 10.1066 29.8571 7.07143C29.8571 4.03621 32.3219 1.57143 35.3571 1.57143ZM10.2143 1.57143C13.2495 1.57143 15.7143 4.03621 15.7143 7.07143C15.7143 10.1066 13.2495 12.5714 10.2143 12.5714C7.17904 12.5714 4.71425 10.1066 4.71425 7.07143C4.71425 4.03621 7.17904 1.57143 10.2143 1.57143Z" fill="#02B795"/>
<path fill-rule="evenodd" clip-rule="evenodd" d="M2.35714 29.8575H9.42857V30.6432C9.42857 31.9451 10.4838 33.0003 11.7857 33.0003H33.7857C35.0876 33.0003 36.1429 31.9451 36.1429 30.6432V29.8575H43.2143C43.8397 29.8575 44.4392 29.6091 44.8808 29.1668C45.3231 28.7252 45.5714 28.1257 45.5714 27.5003V22.786C45.5714 18.8802 42.4058 15.7146 38.5 15.7146H32.2143C29.7629 15.7146 27.6021 16.9623 26.334 18.8575H19.2374C17.9693 16.9623 15.8086 15.7146 13.3571 15.7146H7.07143C3.16564 15.7146 0 18.8802 0 22.786V27.5003C0 28.1257 0.248284 28.7252 0.690641 29.1668C1.13221 29.6091 1.73171 29.8575 2.35714 29.8575ZM31.4286 31.4289H33.7857C34.2194 31.4289 34.5714 31.0769 34.5714 30.6432V25.9289C34.5714 22.8913 32.109 20.4289 29.0714 20.4289H16.5C13.4624 20.4289 11 22.8913 11 25.9289V30.6432C11 31.0769 11.352 31.4289 11.7857 31.4289H14.1429V25.9289C14.1429 25.4952 14.4949 25.1432 14.9286 25.1432C15.3623 25.1432 15.7143 25.4952 15.7143 25.9289V31.4289H29.8571V25.9289C29.8571 25.4952 30.2091 25.1432 30.6429 25.1432C31.0766 25.1432 31.4286 25.4952 31.4286 25.9289V31.4289ZM40.8571 28.286H43.2143C43.4225 28.286 43.6229 28.2035 43.7698 28.0558C43.9175 27.9089 44 27.7085 44 27.5003V22.786C44 19.7485 41.5376 17.286 38.5 17.286H32.2143C30.7159 17.286 29.3574 17.8855 28.3651 18.8575H29.0714C32.9772 18.8575 36.1429 22.0231 36.1429 25.9289V28.286H39.2857V22.786C39.2857 22.3523 39.6377 22.0003 40.0714 22.0003C40.5051 22.0003 40.8571 22.3523 40.8571 22.786V28.286ZM6.28571 28.286H9.42857V25.9289C9.42857 22.0231 12.5942 18.8575 16.5 18.8575H17.2063C16.214 17.8855 14.8555 17.286 13.3571 17.286H7.07143C4.03386 17.286 1.57143 19.7485 1.57143 22.786V27.5003C1.57143 27.7085 1.65393 27.9089 1.80164 28.0558C1.94857 28.2035 2.14893 28.286 2.35714 28.286H4.71429V22.786C4.71429 22.3523 5.06629 22.0003 5.5 22.0003C5.93371 22.0003 6.28571 22.3523 6.28571 22.786V28.286Z" fill="#02B795"/>
</svg>
