<svg width="24" height="25" viewBox="0 0 24 25" fill="none" xmlns="http://www.w3.org/2000/svg">
<g clip-path="url(#clip0_482_1415)">
<path d="M10 25C7.93311 25 6.25 23.2479 6.25 21.0938C6.25 20.6625 6.586 20.3125 7 20.3125C7.414 20.3125 7.75 20.6625 7.75 21.0938C7.75 22.3866 8.76001 23.4375 10 23.4375C11.24 23.4375 12.25 22.3866 12.25 21.0938C12.25 20.6625 12.586 20.3125 13 20.3125C13.414 20.3125 13.75 20.6625 13.75 21.0938C13.75 23.2479 12.0671 25 10 25Z" fill="#02B795"/>
<path d="M18.2499 21.8751H1.74994C0.784973 21.8751 0 21.0574 0 20.0522C0 19.5188 0.223022 19.0137 0.611939 18.6667C0.637024 18.6439 0.66394 18.6231 0.691956 18.6042C2.15991 17.2698 3 15.3501 3 13.3229V10.4167C3 7.0241 5.20697 4.11158 8.367 3.33338C8.77094 3.23649 9.17505 3.49379 9.27008 3.91474C9.36493 4.33455 9.11499 4.75531 8.71307 4.8543C6.23199 5.46466 4.5 7.75214 4.5 10.4167V13.3229C4.5 15.8397 3.44092 18.221 1.59705 19.8552C1.58203 19.8678 1.56903 19.8793 1.55292 19.8907C1.526 19.9262 1.5 19.9803 1.5 20.0522C1.5 20.1938 1.61407 20.3126 1.74994 20.3126H18.2499C18.386 20.3126 18.5001 20.1938 18.5001 20.0522C18.5001 19.9792 18.4741 19.9262 18.446 19.8907C18.431 19.8793 18.4169 19.8678 18.403 19.8552C17.5071 19.0595 16.7999 18.0991 16.3021 17.0001C16.1241 16.6104 16.2839 16.1449 16.6589 15.9595C17.037 15.7741 17.48 15.9429 17.657 16.3323C18.0529 17.2032 18.6079 17.9679 19.3099 18.6074C19.3359 18.6261 19.363 18.646 19.3859 18.6667C19.777 19.0137 20.0001 19.5188 20.0001 20.0522C20.0001 21.0574 19.2151 21.8751 18.2499 21.8751Z" fill="#02B795"/>
<path d="M17.537 13.5416C13.9531 13.5416 11.0371 10.5042 11.0371 6.7709C11.0371 3.03745 13.9531 0 17.537 0C21.1211 0 24.037 3.03745 24.037 6.7709C24.037 10.5042 21.1211 13.5416 17.537 13.5416ZM17.537 1.5625C14.78 1.5625 12.5371 3.899 12.5371 6.7709C12.5371 9.64279 14.78 11.9791 17.537 11.9791C20.294 11.9791 22.537 9.64279 22.537 6.7709C22.537 3.899 20.294 1.5625 17.537 1.5625Z" fill="#02B795"/>
<path fill-rule="evenodd" clip-rule="evenodd" d="M19.7675 4.6634C19.9006 4.81822 19.9006 5.07294 19.7675 5.22776L16.5452 8.9735C16.4786 9.05091 16.3905 9.09086 16.3024 9.09086C16.2143 9.09086 16.1263 9.05091 16.0597 8.9735L14.4485 7.10063C14.3153 6.9458 14.3153 6.69109 14.4485 6.53627C14.5817 6.38145 14.8008 6.38145 14.934 6.53627L16.3024 8.12696L19.282 4.6634C19.4152 4.50608 19.6343 4.50608 19.7675 4.6634Z" fill="#02B795"/>
</g>
<defs>
<clipPath id="clip0_482_1415">
<rect width="24" height="25" fill="white"/>
</clipPath>
</defs>
</svg>
