<svg width="41" height="43" viewBox="0 0 41 43" fill="none" xmlns="http://www.w3.org/2000/svg">
<path d="M27.6912 42.3819C27.7671 42.4957 27.7752 42.642 27.7125 42.7639C27.6499 42.8855 27.5261 42.9636 27.3891 42.968L26.2206 43.0001C22.8043 42.6409 20.3141 39.9341 20.2994 36.5642C20.2877 33.86 21.2624 31.7846 21.9077 30.411C22.1023 29.9973 22.2695 29.6404 22.3785 29.3405C22.8279 28.1057 22.3107 26.0443 22.3056 26.0236C22.268 25.8774 22.3218 25.7235 22.4412 25.6313C22.5605 25.5392 22.7226 25.5275 22.8544 25.6004C26.0445 27.3752 26.5212 29.5232 26.4976 30.7193C27.0303 30.2551 27.8769 29.3113 28.8869 27.4493C30.6396 24.208 29.4174 19.3219 29.4048 19.2729C29.3761 19.1602 29.4004 19.0405 29.4719 18.9484C29.5427 18.8562 29.6524 18.8021 29.7688 18.8018C31.145 18.8018 33.6102 21.257 34.9599 24.7881C35.6193 26.5136 35.2443 28.2759 34.9709 29.5626C34.797 30.3837 34.632 31.1592 34.8575 31.4361C34.9592 31.5614 35.1868 31.6251 35.5331 31.6251C37.9098 31.6145 37.9643 27.1292 37.9643 27.0838C37.965 26.9394 38.0483 26.8079 38.1787 26.7457C38.3113 26.6827 38.4645 26.7007 38.5765 26.7913C38.7474 26.9273 40.2467 28.3297 40.2791 35.4997C40.3028 40.8061 36.6735 42.3219 34.4456 42.7606L33.952 42.7753C33.809 42.7835 33.6897 42.7105 33.619 42.5952C33.549 42.4799 33.5453 42.3355 33.6102 42.2169C34.2077 41.1258 35.1079 39.183 35.1543 37.3238C34.7654 37.7452 34.1966 38.1936 33.4378 38.3785C33.146 38.4491 32.8542 38.388 32.5927 38.2009C31.7204 37.5765 31.2423 35.4664 31.0227 34.1547C30.4989 35.233 29.6443 36.7967 28.4375 37.3632C27.8614 37.6362 27.3022 37.6649 26.7783 37.4516C26.2376 37.2317 25.8398 36.7878 25.576 36.3933C25.3218 37.1735 25.0758 38.4264 25.6784 39.3461C26.407 40.4513 27.2366 41.6979 27.6912 42.3819Z" fill="#FDD2D3"/>
<path d="M15.8518 35.977C16.0603 35.977 16.229 36.1457 16.229 36.3542V38.8333H17.1683C17.3768 38.8333 17.5455 39.0021 17.5455 39.2105V42.5082C17.5455 42.7167 17.3768 42.8854 17.1683 42.8854H2.24196C2.03343 42.8854 1.86475 42.7167 1.86475 42.5082V39.2105C1.86475 39.0021 2.03343 38.8333 2.24196 38.8333H3.20635V36.3542C3.20635 36.1457 3.37503 35.977 3.58356 35.977H4.29746V34.9283C4.29746 34.172 3.97329 33.4514 3.40891 32.9515L3.3404 32.8915C2.82543 32.4348 2.53218 31.778 2.53588 31.0887L2.57058 25.2016C2.57051 25.2011 2.57164 25.0236 2.57164 25.0236L2.58748 22.3451C2.58906 22.3375 2.58968 22.2364 2.58968 22.2364C2.59262 21.7461 2.7871 21.2853 3.13852 20.9386C3.48631 20.5949 3.94531 20.4059 4.43153 20.4059C4.862 20.4086 5.24344 20.5574 5.55185 20.7962C5.6629 20.1344 6.11013 19.592 6.71051 19.3556C6.17065 18.8717 5.82399 18.1768 5.82399 17.3968V7.843C5.82399 6.3872 7.00867 5.20251 8.46447 5.20251H17.7961C19.2518 5.20251 20.4365 6.3872 20.4365 7.843V17.3967C20.4365 18.8525 19.2518 20.0372 17.7961 20.0372H15.0905L15.0893 26.2844L17.0342 23.9117C17.5426 23.0342 18.6698 22.734 19.5443 23.2398C20.3267 23.6922 20.6141 24.7011 20.2398 25.702L18.1718 30.8658C17.6605 32.1422 16.6806 33.1099 15.4819 33.5218C15.364 33.5623 15.2439 33.5984 15.1209 33.6297L14.7886 33.7137C14.4402 33.8025 14.197 34.1152 14.197 34.474V35.977L15.8518 35.977Z" fill="#FDD2D3"/>
<path d="M27.6912 42.3819C27.7671 42.4957 27.7752 42.642 27.7125 42.7639C27.6499 42.8855 27.5261 42.9636 27.3891 42.968L26.2206 43.0001C22.8043 42.6409 20.3141 39.9341 20.2994 36.5642C20.2877 33.86 21.2624 31.7846 21.9077 30.411C22.1023 29.9973 22.2695 29.6404 22.3785 29.3405C22.8279 28.1057 22.3107 26.0443 22.3056 26.0236C22.268 25.8774 22.3218 25.7235 22.4412 25.6313C22.5605 25.5392 22.7226 25.5275 22.8544 25.6004C26.0445 27.3752 26.5212 29.5232 26.4976 30.7193C27.0303 30.2551 27.8769 29.3114 28.8869 27.4493C30.6396 24.208 29.4174 19.3219 29.4048 19.2729C29.3761 19.1602 29.4004 19.0405 29.4719 18.9484C29.5427 18.8562 29.6524 18.8021 29.7688 18.8018C31.145 18.8018 33.6102 21.257 34.9599 24.7881C35.6193 26.5136 35.2443 28.2759 34.9709 29.5626C34.797 30.3837 34.632 31.1592 34.8575 31.4361C34.9592 31.5614 35.1868 31.6251 35.5331 31.6251C37.9098 31.6145 37.9643 27.1292 37.9643 27.0838C37.965 26.9394 38.0483 26.8079 38.1787 26.7457C38.3113 26.6827 38.4645 26.7007 38.5765 26.7913C38.7474 26.9273 40.2467 28.3297 40.2791 35.4997C40.3028 40.8061 36.6735 42.3219 34.4456 42.7606L33.952 42.7753C33.809 42.7835 33.6897 42.7105 33.619 42.5952C33.549 42.4799 33.5453 42.3355 33.6102 42.2169C34.2077 41.1258 35.1079 39.183 35.1543 37.3238C34.7654 37.7452 34.1966 38.1936 33.4378 38.3785C33.146 38.4491 32.8542 38.388 32.5927 38.2009C31.7204 37.5765 31.2423 35.4664 31.0227 34.1547C30.4989 35.233 29.6443 36.7967 28.4375 37.3632C27.8614 37.6362 27.3022 37.6649 26.7783 37.4516C26.2376 37.2317 25.8398 36.7878 25.576 36.3933C25.3218 37.1735 25.0758 38.4264 25.6784 39.3461C26.407 40.4513 27.2366 41.6979 27.6912 42.3819ZM25.1892 35.3287C25.257 35.1954 25.3984 35.1154 25.5465 35.1225C25.6961 35.1305 25.8265 35.2263 25.8795 35.3667C25.8832 35.3774 26.3002 36.4431 27.062 36.7528C27.3884 36.8851 27.7317 36.8618 28.1162 36.6806C29.2457 36.1506 30.1202 34.3035 30.5401 33.4158C30.8408 32.7807 30.9527 32.5405 31.2857 32.5998C31.4544 32.6293 31.607 32.8301 31.6225 32.9999C31.7109 33.9801 32.2288 37.0122 33.0319 37.5873C33.135 37.6609 33.2042 37.6579 33.2595 37.6454C34.481 37.3478 35.1132 36.0994 35.1197 36.0868C35.1919 35.9409 35.3452 35.8585 35.5125 35.8809C35.6745 35.9049 35.802 36.0294 35.83 36.1903C36.177 38.2278 35.3179 40.4985 34.5922 41.9638C36.5461 41.5167 39.5447 40.083 39.5247 35.5034C39.5071 31.5003 39.0178 29.3947 38.6185 28.3403C38.4019 29.9045 37.7168 32.3696 35.5486 32.3795C34.9407 32.3795 34.5274 32.2267 34.2718 31.9121C33.8194 31.3555 34.0021 30.495 34.2334 29.406C34.5009 28.1444 34.8346 26.5748 34.2555 25.0575C33.1121 22.0681 31.302 20.2226 30.2713 19.7057C30.5586 21.1862 31.0766 24.9853 29.55 27.8085C27.6183 31.3709 26.1831 31.8395 26.1227 31.8575C25.9923 31.8984 25.8457 31.862 25.7477 31.7636C25.6489 31.6656 25.6121 31.5216 25.6519 31.3887C25.6851 31.2781 26.3717 28.8273 23.2052 26.6978C23.326 27.4972 23.4166 28.6944 23.0873 29.5979C22.9672 29.9299 22.7926 30.3015 22.5907 30.7315C21.9372 32.1224 21.0429 34.0269 21.0539 36.5607C21.0672 39.5393 23.2738 41.9318 26.2487 42.2478L26.687 42.2346C26.2243 41.538 25.607 40.6083 25.0485 39.7606C23.8763 37.9718 25.1354 35.4355 25.1892 35.3287Z" fill="#ED1C24"/>
<path d="M15.8518 35.977C16.0603 35.977 16.229 36.1457 16.229 36.3542V38.8333H17.1683C17.3768 38.8333 17.5455 39.0021 17.5455 39.2105V42.5082C17.5455 42.7167 17.3768 42.8854 17.1683 42.8854H2.24196C2.03343 42.8854 1.86475 42.7167 1.86475 42.5082V39.2105C1.86475 39.0021 2.03343 38.8333 2.24196 38.8333H3.20635V36.3542C3.20635 36.1457 3.37503 35.977 3.58356 35.977H4.29746V34.9283C4.29746 34.172 3.97329 33.4514 3.40891 32.9515L3.3404 32.8915C2.82543 32.4348 2.53218 31.778 2.53588 31.0887L2.57058 25.2016C2.57051 25.2011 2.57164 25.0236 2.57164 25.0236L2.58748 22.3451C2.58906 22.3375 2.58968 22.2364 2.58968 22.2364C2.59262 21.7461 2.7871 21.2853 3.13852 20.9386C3.48631 20.5949 3.94531 20.4059 4.43153 20.4059C4.862 20.4086 5.24344 20.5574 5.55185 20.7962C5.6629 20.1344 6.11013 19.592 6.71051 19.3556C6.17065 18.8717 5.82399 18.1768 5.82399 17.3968V7.843C5.82399 6.3872 7.00867 5.20251 8.46447 5.20251H17.7961C19.2518 5.20251 20.4365 6.3872 20.4365 7.843V17.3967C20.4365 18.8525 19.2518 20.0372 17.7961 20.0372H15.0905L15.0893 26.2844L17.0342 23.9117C17.5426 23.0342 18.6698 22.734 19.5443 23.2398C20.3267 23.6922 20.6141 24.7011 20.2398 25.702L18.1718 30.8658C17.6605 32.1422 16.6806 33.1099 15.4819 33.5218C15.364 33.5623 15.2439 33.5984 15.1209 33.6297L14.7886 33.7137C14.4402 33.8025 14.197 34.1152 14.197 34.474V35.977L15.8518 35.977ZM17.7961 19.2828C18.8363 19.2828 19.6821 18.4366 19.6821 17.3967V7.843C19.6821 6.8031 18.8363 5.95694 17.7961 5.95694H8.46445C7.42417 5.95694 6.57839 6.8031 6.57839 7.843V17.3967C6.57839 18.4366 7.42417 19.2828 8.46445 19.2828H8.62936C8.90805 18.6178 9.56433 18.1496 10.3277 18.1496C10.7295 18.1523 11.0988 18.281 11.409 18.5087L11.4134 16.2918C10.1333 15.6551 9.2432 14.3464 9.2432 12.8223C9.2432 10.6791 10.9871 8.93517 13.1303 8.93524C15.2735 8.93517 17.0173 10.6791 17.0173 12.8223C17.0173 14.2473 16.2379 15.4824 15.0912 16.1591L15.0906 19.2828H17.7961ZM15.0915 14.6524L15.0914 15.2453C15.8001 14.6704 16.2629 13.8038 16.2629 12.8223C16.2629 11.095 14.8579 9.68962 13.1303 9.68969C11.4026 9.68962 9.9976 11.0949 9.9976 12.8223C9.9976 13.9161 10.5631 14.8779 11.4152 15.4383L11.4166 14.7157C11.4166 13.804 12.0347 13.0197 12.8871 12.8507C13.4323 12.7427 13.9915 12.8816 14.4173 13.2323C14.8461 13.5841 15.0915 14.1016 15.0915 14.6524ZM14.6023 32.9824L14.9353 32.8985C15.0377 32.872 15.1386 32.8417 15.238 32.8082C16.2275 32.4679 17.0423 31.6578 17.4719 30.5851L19.5362 25.4294C19.7322 24.9056 19.7005 24.2012 19.1671 23.8933C18.6477 23.5938 17.9861 23.7732 17.6523 24.3394L15.0038 27.5785C14.9021 27.7022 14.7342 27.7498 14.5853 27.6949C14.4351 27.6415 14.3349 27.4993 14.3349 27.3398L14.3371 14.6524C14.3371 14.3282 14.1919 14.0232 13.9385 13.815C13.6843 13.6054 13.3631 13.5251 13.0338 13.5907C12.5335 13.6898 12.171 14.1631 12.171 14.7164L12.1607 19.9059C12.1622 19.9384 12.1698 19.9698 12.1695 20.0026L12.1519 23.904C12.1511 24.1117 11.9824 24.2793 11.7747 24.2793C11.5647 24.2783 11.3967 24.1088 11.3974 23.9003L11.4151 19.9981C11.4174 19.7093 11.3053 19.436 11.1006 19.2286C10.895 19.0212 10.6231 18.9059 10.3343 18.9041C9.71177 18.8835 9.24393 19.3851 9.24026 19.9842L9.23512 21.1235C9.23512 21.1258 9.2226 23.8859 9.2226 23.8859C9.22184 24.0937 9.05316 24.2613 8.84539 24.2613C8.63542 24.2601 8.46742 24.0907 8.46817 23.8822L8.46841 23.828C8.46155 23.7927 8.48072 21.1187 8.48072 21.1187C8.48442 20.4939 7.99298 19.9826 7.38447 19.9789C6.77294 19.9789 6.27787 20.4825 6.27419 21.105L6.26641 22.1933C6.26709 22.216 6.27282 22.2374 6.27268 22.2602L6.25427 24.3695C6.25283 24.5766 6.08408 24.7435 5.87706 24.7435C5.66568 24.7416 5.49841 24.5714 5.49985 24.363L5.51826 22.2543C5.52194 21.655 5.03717 21.164 4.43823 21.1603C4.14499 21.1603 3.8746 21.2719 3.66834 21.4756C3.46059 21.6805 3.34568 21.952 3.34417 22.2411L3.32576 25.0954C3.32583 25.0954 3.29037 31.0927 3.29037 31.0927C3.2882 31.5646 3.48857 32.0143 3.83997 32.326L3.9078 32.3856C4.63492 33.0295 5.05195 33.9561 5.05195 34.9282V35.9769H13.4427V34.474C13.4426 33.7701 13.9193 33.1567 14.6023 32.9824ZM3.96075 36.7314V39.2105C3.96075 39.4191 3.79206 39.5877 3.58354 39.5877H2.61917V42.131H16.7911V39.5877H15.9903C15.9636 39.5938 15.9385 39.604 15.91 39.604H10.2658C10.0573 39.604 9.88857 39.4353 9.88857 39.2267C9.88857 39.0182 10.0573 38.8495 10.2658 38.8495H15.4746V36.7314H3.96075Z" fill="#ED1C24"/>
<path d="M18.8311 2.68213C21.2704 2.68213 23.1808 4.67056 23.1808 7.20905C23.1808 7.41751 23.0121 7.58626 22.8036 7.58626C22.5951 7.58626 22.4263 7.41751 22.4263 7.20905C22.4263 5.0935 20.8468 3.43655 18.8311 3.43655C18.6226 3.43655 18.4539 3.2678 18.4539 3.05934C18.4539 2.85084 18.6226 2.68213 18.8311 2.68213Z" fill="#ED1C24"/>
<path d="M18.8311 0C22.9038 0 26.217 3.23391 26.217 7.20904C26.217 7.4175 26.0482 7.58625 25.8397 7.58625C25.6312 7.58625 25.4625 7.4175 25.4625 7.20904C25.4625 3.64981 22.4875 0.754424 18.8311 0.754424C18.6226 0.754424 18.4539 0.58574 18.4539 0.377212C18.4539 0.168685 18.6226 0 18.8311 0Z" fill="#ED1C24"/>
<path d="M3.79056 7.20905C3.79056 7.41751 3.62187 7.58626 3.41334 7.58626C3.20482 7.58626 3.03613 7.41751 3.03613 7.20905C3.03613 4.67056 4.94648 2.68213 7.38584 2.68213C7.59436 2.68213 7.76305 2.85081 7.76305 3.05934C7.76305 3.2678 7.59436 3.43655 7.38584 3.43655C5.37018 3.43655 3.79056 5.0935 3.79056 7.20905Z" fill="#ED1C24"/>
<path d="M0.377212 7.58625C0.168685 7.58625 0 7.4175 0 7.20904C0 3.23391 3.31313 0 7.38581 0C7.59434 0 7.76303 0.168685 7.76303 0.377212C7.76303 0.58574 7.59434 0.754424 7.38581 0.754424C3.72933 0.754424 0.754424 3.64983 0.754424 7.20904C0.754424 7.4175 0.58574 7.58625 0.377212 7.58625Z" fill="#ED1C24"/>
</svg>
