<svg width="101" height="103" viewBox="0 0 101 103" fill="none" xmlns="http://www.w3.org/2000/svg">
<path d="M77.847 56.173C74.283 56.173 70.904 56.987 67.888 58.44C64.376 55.815 60.451 53.719 56.228 52.273C64.627 47.434 70.298 38.37 70.298 28C70.298 12.561 57.737 0 42.299 0C26.86 0 14.299 12.561 14.299 28C14.299 38.448 20.055 47.571 28.559 52.383C11.952 58.205 0 74.077 0 92.709H6C6 72.467 22.396 56 42.549 56C49.929 56 56.797 58.215 62.547 62.009C57.806 66.232 54.812 72.376 54.812 79.209C54.812 91.91 65.146 102.242 77.847 102.242C90.548 102.242 100.88 91.91 100.88 79.209C100.88 66.508 90.548 56.173 77.847 56.173ZM20.299 27.999C20.299 15.868 30.168 5.999 42.299 5.999C54.429 5.999 64.298 15.868 64.298 27.999C64.298 40.13 54.429 49.999 42.299 49.999C30.168 49.999 20.299 40.13 20.299 27.999ZM77.847 96.241C68.454 96.241 60.812 88.6 60.812 79.208C60.812 69.816 68.455 62.173 77.847 62.173C87.239 62.173 94.88 69.816 94.88 79.208C94.88 88.6 87.239 96.241 77.847 96.241Z" fill="white"/>
<path d="M80.8469 68.2021H74.8469V82.4501L83.3959 90.9991L87.6379 86.7571L80.8469 79.9661V68.2021Z" fill="white"/>
</svg>
