<svg width="102" height="102" viewBox="0 0 102 102" fill="none" xmlns="http://www.w3.org/2000/svg">
<path d="M48.3767 56.7094C42.7807 56.7094 37.3101 55.0501 32.657 51.9411C28.004 48.8317 24.3774 44.4128 22.2359 39.2426C20.0943 34.0725 19.534 28.3834 20.6257 22.8947C21.7175 17.4061 24.4123 12.3645 28.3694 8.40744C32.3264 4.45038 37.368 1.75555 42.8565 0.663818C48.3452 -0.427961 54.0346 0.132372 59.2044 2.27396C64.3747 4.41549 68.7936 8.04207 71.903 12.6951C75.012 17.3482 76.6713 22.8186 76.6713 28.4148C76.6585 35.915 73.673 43.1043 68.3694 48.4075C63.0662 53.7111 55.877 56.6966 48.3767 56.7094ZM48.3767 7.50133C44.2402 7.50133 40.197 8.72789 36.7578 11.0259C33.3186 13.3239 30.6381 16.5901 29.0552 20.4116C27.4723 24.233 27.0582 28.438 27.8651 32.4948C28.672 36.5516 30.6639 40.278 33.5887 43.2028C36.5134 46.1277 40.2399 48.1196 44.2968 48.9261C48.3535 49.7332 52.5584 49.3193 56.3799 47.7363C60.2014 46.1533 63.4678 43.4729 65.7653 40.0337C68.0633 36.5945 69.2901 32.551 69.2901 28.4148C69.2773 22.8722 67.0693 17.5603 63.1504 13.6411C59.231 9.72189 53.9195 7.51432 48.3767 7.50133Z" fill="white"/>
<path d="M4.08953 96.0758C3.11467 96.063 2.18336 95.6703 1.49395 94.9809C0.804597 94.2915 0.411671 93.36 0.398926 92.3852C0.424908 80.9738 4.96961 70.0373 13.0388 61.9682C21.1079 53.8991 32.0445 49.3542 43.456 49.3281H53.2976C54.2763 49.3281 55.2152 49.7169 55.9071 50.4092C56.5994 51.1011 56.9882 52.04 56.9882 53.0187C56.9882 53.9975 56.5994 54.9364 55.9071 55.6282C55.2152 56.3206 54.2763 56.7093 53.2976 56.7093H43.456C33.9981 56.7221 24.9314 60.4851 18.2437 67.1729C11.556 73.8608 7.79317 82.9274 7.78013 92.3852C7.76739 93.36 7.37446 94.2915 6.68511 94.9809C5.9957 95.6703 5.06439 96.063 4.08953 96.0758Z" fill="white"/>
<path d="M63.1391 100.997C62.1914 100.919 61.3096 100.479 60.6787 99.7665L40.9955 80.0833C40.6667 79.3944 40.5593 78.6209 40.6884 77.869C40.8175 77.1166 41.1766 76.4227 41.7164 75.8829C42.2557 75.3436 42.9496 74.9844 43.702 74.8555C44.4539 74.7265 45.2279 74.8338 45.9163 75.1625L62.7947 92.0409L94.8291 55.4793C95.1524 55.1176 95.5436 54.8229 95.9806 54.6123C96.4176 54.4011 96.8919 54.2786 97.3761 54.2516C97.8604 54.224 98.3455 54.2924 98.8032 54.4523C99.2613 54.6122 99.6835 54.8607 100.045 55.184C100.407 55.5073 100.702 55.8985 100.913 56.3355C101.123 56.7725 101.246 57.2464 101.273 57.7311C101.3 58.2153 101.232 58.7005 101.072 59.1581C100.912 59.6162 100.664 60.0384 100.34 60.4001L65.8948 99.7665C65.573 100.15 65.1749 100.461 64.7261 100.682C64.2768 100.902 63.7867 101.026 63.2868 101.046L63.1391 100.997Z" fill="white"/>
</svg>
