<svg width="85" height="100" viewBox="0 0 85 100" fill="none" xmlns="http://www.w3.org/2000/svg">
<path d="M65.5 60C61.6433 60 57.8731 61.1437 54.6664 63.2863C51.4596 65.429 48.9603 68.4745 47.4844 72.0377C46.0084 75.6008 45.6223 79.5216 46.3747 83.3043C47.1271 87.0869 48.9843 90.5615 51.7114 93.2886C54.4385 96.0157 57.9131 97.8729 61.6957 98.6253C65.4784 99.3777 69.3992 98.9916 72.9623 97.5156C76.5255 96.0397 79.571 93.5404 81.7137 90.3336C83.8563 87.1269 85 83.3567 85 79.5C84.9943 74.33 82.938 69.3735 79.2822 65.7178C75.6265 62.062 70.67 60.0057 65.5 60ZM65.5 93.913C62.6494 93.913 59.8628 93.0677 57.4925 91.484C55.1223 89.9003 53.275 87.6493 52.1841 85.0156C51.0932 82.382 50.8078 79.484 51.3639 76.6882C51.92 73.8923 53.2927 71.3241 55.3084 69.3084C57.3241 67.2927 59.8923 65.92 62.6882 65.3639C65.484 64.8078 68.382 65.0932 71.0156 66.1841C73.6493 67.275 75.9003 69.1223 77.484 71.4925C79.0677 73.8628 79.913 76.6494 79.913 79.5C79.9088 83.3213 78.389 86.9848 75.6869 89.6869C72.9848 92.389 69.3213 93.9088 65.5 93.913Z" fill="white"/>
<path d="M38.3401 54.3639H49.7001C53.743 54.3459 57.7452 55.1752 61.4509 56.7986C61.9656 57.0413 62.5234 57.1782 63.0915 57.201C63.6597 57.2239 64.2266 57.1323 64.759 56.9316C65.2913 56.7309 65.7782 56.4253 66.1911 56.0326C66.604 55.64 66.9344 55.1683 67.1629 54.6454C67.3914 54.1225 67.5133 53.5589 67.5216 52.9879C67.5298 52.417 67.4241 51.8501 67.2108 51.3208C66.9974 50.7914 66.6807 50.3104 66.2793 49.9059C65.878 49.5014 65.4 49.1817 64.8737 48.9657C63.7826 48.4848 62.6681 48.0729 61.5418 47.701C65.7371 44.1025 68.7331 39.2988 70.126 33.9374C71.5189 28.576 71.2417 22.9146 69.3318 17.7162C67.4219 12.5179 63.9711 8.03259 59.4445 4.86484C54.9179 1.69709 49.5331 -0.000808133 44.016 2.88552e-07C38.4989 0.00080871 33.1146 1.70029 28.589 4.86936C24.0633 8.03844 20.6138 12.5248 18.7054 17.7236C16.797 22.9225 16.5214 28.584 17.9159 33.945C19.3103 39.3061 22.3077 44.1089 26.5041 47.7061C18.8083 50.2233 12.1014 55.1187 7.34144 61.6929C2.58151 68.2672 0.0120129 76.184 0 84.3126V95.7216C0 96.8563 0.448821 97.9445 1.24773 98.7469C2.04663 99.5492 3.13018 100 4.26001 100H44.3609C45.4907 100 46.5743 99.5492 47.3732 98.7469C48.1721 97.9445 48.6209 96.8563 48.6209 95.7216C48.6209 94.5869 48.1721 93.4987 47.3732 92.6963C46.5743 91.894 45.4907 91.4432 44.3609 91.4432H8.52002V84.3126C8.52919 76.3725 11.6739 68.7603 17.2642 63.1458C22.8546 57.5313 30.4341 54.3731 38.3401 54.3639ZM44.0201 8.72775C47.6711 8.72775 51.2402 9.81508 54.2759 11.8522C57.3117 13.8894 59.6777 16.7849 61.0749 20.1726C62.4721 23.5603 62.8377 27.288 62.1254 30.8843C61.4131 34.4807 59.655 37.7841 57.0733 40.377C54.4916 42.9698 51.2024 44.7355 47.6215 45.4509C44.0406 46.1662 40.3289 45.7991 36.9557 44.3959C33.5826 42.9926 30.6995 40.6163 28.6711 37.5675C26.6427 34.5187 25.5601 30.9342 25.5601 27.2674C25.5658 22.3522 27.5125 17.6399 30.9732 14.1642C34.4339 10.6886 39.1259 8.73349 44.0201 8.72775Z" fill="white"/>
<path d="M73.8584 80.2615C74.358 79.7851 74.3768 78.9939 73.9004 78.4943L66.137 70.3523C65.6606 69.8527 64.8693 69.8338 64.3697 70.3103C63.8701 70.7867 63.8513 71.5779 64.3277 72.0775L71.2285 79.3148L63.9912 86.2157C63.4916 86.6921 63.4727 87.4833 63.9491 87.9829C64.4255 88.4825 65.2168 88.5014 65.7164 88.025L73.8584 80.2615ZM57.9703 80.2496L72.966 80.6065L73.0255 78.1072L58.0297 77.7504L57.9703 80.2496Z" fill="white"/>
</svg>
