<svg width="24" height="23" viewBox="0 0 24 23" fill="none" xmlns="http://www.w3.org/2000/svg">
<path d="M19.755 18.2573V17.0543C19.755 15.8895 18.7664 14.942 17.5509 14.942C16.3355 14.942 15.3469 15.8895 15.3469 17.0543V18.2573C14.9247 18.3617 14.6122 18.7297 14.6122 19.1665C14.6122 19.4254 14.8318 19.6359 15.102 19.6359H19.9999C20.27 19.6359 20.4897 19.4254 20.4897 19.1665C20.4897 18.7297 20.1772 18.3617 19.755 18.2573ZM17.5509 15.4114C18.496 15.4114 19.2652 16.1486 19.2652 17.0543V18.2277H15.8367V17.0543C15.8367 16.1486 16.6059 15.4114 17.5509 15.4114ZM15.102 19.1665C15.102 18.9076 15.3216 18.6971 15.5918 18.6971H19.5101C19.7802 18.6971 19.9999 18.9076 19.9999 19.1665H15.102ZM19.7053 15.4609C19.6091 15.3696 19.6083 15.2213 19.7033 15.1291L20.0707 14.773C20.1657 14.6808 20.3207 14.6801 20.417 14.7712C20.5132 14.8625 20.514 15.0108 20.4189 15.103L20.0516 15.4591C20.0038 15.5055 19.9407 15.5288 19.8775 15.5288C19.8153 15.5288 19.7531 15.506 19.7053 15.4609ZM18.6804 14.482L18.8707 14.13C18.9329 14.0145 19.0811 13.9699 19.2008 14.0295C19.3208 14.0891 19.3678 14.2307 19.3056 14.3459L19.1154 14.6979C19.0718 14.7787 18.9863 14.8247 18.8976 14.8247C18.8597 14.8247 18.8212 14.8162 18.7852 14.7984C18.6652 14.7388 18.6182 14.5973 18.6804 14.482ZM14.6829 15.1033C14.5877 15.011 14.5887 14.8627 14.6849 14.7714C14.7809 14.6801 14.9364 14.681 15.0312 14.7733L15.3985 15.1293C15.4938 15.2215 15.4928 15.3699 15.3966 15.4612C15.3491 15.5062 15.2866 15.529 15.2244 15.529C15.1612 15.529 15.098 15.5058 15.0503 15.4593L14.6829 15.1033ZM15.7962 14.3459C15.734 14.2309 15.7811 14.0891 15.9011 14.0295C16.0203 13.9699 16.1687 14.0145 16.2312 14.13L16.4215 14.482C16.4837 14.597 16.4367 14.7388 16.3167 14.7984C16.2809 14.8162 16.2422 14.8247 16.2042 14.8247C16.1158 14.8247 16.0301 14.7787 15.9865 14.6979L15.7962 14.3459ZM16.5714 17.0543C16.5714 16.5365 17.0107 16.1155 17.5509 16.1155C17.6864 16.1155 17.7958 16.2204 17.7958 16.3502C17.7958 16.48 17.6864 16.5849 17.5509 16.5849C17.2808 16.5849 17.0611 16.7954 17.0611 17.0543C17.0611 17.184 16.9517 17.289 16.8162 17.289C16.6808 17.289 16.5714 17.184 16.5714 17.0543Z" fill="#021C17"/>
<path fill-rule="evenodd" clip-rule="evenodd" d="M14.8571 6.02381C14.8571 9.34482 12.0373 12.0476 8.57143 12.0476C5.10555 12.0476 2.28571 9.34482 2.28571 6.02381C2.28571 2.7028 5.10555 0 8.57143 0C12.0373 0 14.8571 2.7028 14.8571 6.02381ZM13.7143 6.02381C13.7143 3.30604 11.4075 1.09524 8.57143 1.09524C5.73533 1.09524 3.42857 3.30604 3.42857 6.02381C3.42857 8.74158 5.73533 10.9524 8.57143 10.9524C11.4075 10.9524 13.7143 8.74158 13.7143 6.02381Z" fill="#021C17"/>
<path fill-rule="evenodd" clip-rule="evenodd" d="M11.4286 16.9762C11.4286 13.6552 14.2484 10.9524 17.7143 10.9524C21.1802 10.9524 24 13.6552 24 16.9762C24 20.2972 21.1802 23 17.7143 23C14.2484 23 11.4286 20.2972 11.4286 16.9762ZM12.5714 16.9762C12.5714 19.694 14.8782 21.9048 17.7143 21.9048C20.5504 21.9048 22.8571 19.694 22.8571 16.9762C22.8571 14.2584 20.5504 12.0476 17.7143 12.0476C14.8782 12.0476 12.5714 14.2584 12.5714 16.9762Z" fill="#021C17"/>
<path d="M1.71429 23H12.7822C12.3492 22.6736 11.9499 22.3084 11.5953 21.9048H1.71429C1.53603 21.9048 1.37659 21.8261 1.27168 21.7032C1.19133 21.6088 1.14286 21.4882 1.14286 21.3571V20.2619C1.14286 18.1484 2.9375 16.4286 5.14286 16.4286H9.7433C9.77105 16.0557 9.82238 15.6897 9.90402 15.3333H5.14286C2.30676 15.3333 0 17.5441 0 20.2619V21.3571C0 22.2631 0.768814 23 1.71429 23Z" fill="#021C17"/>
</svg>
