<svg width="24" height="32" viewBox="0 0 24 32" fill="none" xmlns="http://www.w3.org/2000/svg">
<path d="M12 13.3333C11.3407 13.3333 10.6963 13.1378 10.1481 12.7716C9.59994 12.4053 9.17269 11.8847 8.9204 11.2756C8.66811 10.6665 8.6021 9.9963 8.73072 9.3497C8.85933 8.7031 9.1768 8.10915 9.64298 7.64298C10.1092 7.1768 10.7031 6.85933 11.3497 6.73072C11.9963 6.6021 12.6665 6.66811 13.2756 6.9204C13.8847 7.17269 14.4053 7.59994 14.7716 8.1481C15.1378 8.69626 15.3333 9.34073 15.3333 10C15.3333 10.8841 14.9821 11.7319 14.357 12.357C13.7319 12.9821 12.8841 13.3333 12 13.3333ZM6.73583 13.3333H2.83333C2.61232 13.3333 2.40036 13.2455 2.24408 13.0893C2.0878 12.933 2 12.721 2 12.5C2.0079 11.3034 2.4431 10.149 3.22713 9.24507C4.01116 8.34109 5.09239 7.74702 6.27583 7.57C6.41335 7.55073 6.5535 7.56614 6.68355 7.61481C6.81361 7.66348 6.92943 7.74388 7.02051 7.8487C7.11159 7.95353 7.17502 8.07944 7.20506 8.21502C7.2351 8.35059 7.23078 8.49152 7.1925 8.625C7.0648 9.07217 7.00001 9.53495 7 10C7.00024 10.7415 7.16713 11.4734 7.48833 12.1417C7.54875 12.2685 7.57611 12.4086 7.56788 12.5488C7.55965 12.6891 7.51609 12.825 7.44125 12.9439C7.36642 13.0628 7.26273 13.1608 7.13984 13.2289C7.01694 13.297 6.87883 13.3329 6.73833 13.3333H6.73583ZM16.1667 20H7.83333C7.61232 20 7.40036 19.9122 7.24408 19.7559C7.0878 19.5996 7 19.3877 7 19.1667C7 17.8406 7.52678 16.5688 8.46447 15.6311C9.40215 14.6935 10.6739 14.1667 12 14.1667C13.3261 14.1667 14.5979 14.6935 15.5355 15.6311C16.4732 16.5688 17 17.8406 17 19.1667C17 19.3877 16.9122 19.5996 16.7559 19.7559C16.5996 19.9122 16.3877 20 16.1667 20ZM17 6.66667C16.3407 6.66667 15.6963 6.47117 15.1481 6.1049C14.5999 5.73863 14.1727 5.21803 13.9204 4.60895C13.6681 3.99986 13.6021 3.32964 13.7307 2.68303C13.8593 2.03643 14.1768 1.44249 14.643 0.976312C15.1092 0.510137 15.7031 0.192668 16.3497 0.0640506C16.9963 -0.0645668 17.6665 0.00144427 18.2756 0.253736C18.8847 0.506028 19.4053 0.93327 19.7716 1.48143C20.1378 2.0296 20.3333 2.67406 20.3333 3.33333C20.3333 4.21739 19.9821 5.06524 19.357 5.69036C18.7319 6.31548 17.8841 6.66667 17 6.66667ZM7 6.66667C6.34073 6.66667 5.69626 6.47117 5.1481 6.1049C4.59994 5.73863 4.17269 5.21803 3.9204 4.60895C3.66811 3.99986 3.6021 3.32964 3.73072 2.68303C3.85933 2.03643 4.1768 1.44249 4.64298 0.976312C5.10915 0.510137 5.7031 0.192668 6.3497 0.0640506C6.9963 -0.0645668 7.66652 0.00144427 8.27561 0.253736C8.8847 0.506028 9.40529 0.93327 9.77156 1.48143C10.1378 2.0296 10.3333 2.67406 10.3333 3.33333C10.3333 4.21739 9.98214 5.06524 9.35702 5.69036C8.7319 6.31548 7.88405 6.66667 7 6.66667ZM21.1667 13.3333H17.2642C17.1237 13.3329 16.9856 13.297 16.8627 13.2289C16.7398 13.1608 16.6361 13.0628 16.5612 12.9439C16.4864 12.825 16.4429 12.6891 16.4346 12.5488C16.4264 12.4086 16.4538 12.2685 16.5142 12.1417C16.8345 11.4732 17.0005 10.7413 17 10C16.9986 9.53476 16.9324 9.07197 16.8033 8.625C16.7648 8.49114 16.7605 8.34977 16.7907 8.2138C16.821 8.07783 16.8848 7.95161 16.9764 7.84667C17.068 7.74174 17.1844 7.66143 17.315 7.6131C17.4457 7.56477 17.5863 7.54995 17.7242 7.57C18.9076 7.74702 19.9888 8.34109 20.7729 9.24507C21.5569 10.149 21.9921 11.3034 22 12.5C22 12.721 21.9122 12.933 21.7559 13.0893C21.5996 13.2455 21.3877 13.3333 21.1667 13.3333Z" fill="white"/>
<path d="M0.432 32C0.352 32 0.288 31.972 0.24 31.916C0.192 31.86 0.176 31.788 0.192 31.7L1.848 23.9C1.864 23.812 1.908 23.74 1.98 23.684C2.052 23.628 2.128 23.6 2.208 23.6H7.572C7.66 23.6 7.724 23.628 7.764 23.684C7.812 23.74 7.828 23.812 7.812 23.9L7.584 24.92C7.568 25.008 7.528 25.08 7.464 25.136C7.4 25.192 7.324 25.22 7.236 25.22H3.456L3.012 27.248H6.552C6.64 27.248 6.704 27.276 6.744 27.332C6.792 27.388 6.808 27.46 6.792 27.548L6.576 28.568C6.56 28.648 6.516 28.716 6.444 28.772C6.38 28.828 6.304 28.856 6.216 28.856H2.676L2.064 31.7C2.048 31.788 2.008 31.86 1.944 31.916C1.88 31.972 1.804 32 1.716 32H0.432ZM7.75622 32C7.67622 32 7.61222 31.972 7.56422 31.916C7.51622 31.86 7.50022 31.788 7.51622 31.7L9.17222 23.9C9.18822 23.812 9.22822 23.74 9.29222 23.684C9.36422 23.628 9.44422 23.6 9.53222 23.6H10.6122C10.7322 23.6 10.8162 23.628 10.8642 23.684C10.9122 23.732 10.9402 23.776 10.9482 23.816L13.0962 28.856L14.1522 23.9C14.1682 23.812 14.2082 23.74 14.2722 23.684C14.3442 23.628 14.4242 23.6 14.5122 23.6H15.7242C15.8122 23.6 15.8762 23.628 15.9162 23.684C15.9642 23.74 15.9802 23.812 15.9642 23.9L14.3082 31.7C14.2922 31.78 14.2482 31.852 14.1762 31.916C14.1122 31.972 14.0402 32 13.9602 32H12.8682C12.7482 32 12.6642 31.972 12.6162 31.916C12.5762 31.86 12.5482 31.816 12.5322 31.784L10.3602 26.888L9.34022 31.7C9.32422 31.788 9.28022 31.86 9.20822 31.916C9.14422 31.972 9.06822 32 8.98022 32H7.75622ZM16.3226 32C16.2426 32 16.1786 31.972 16.1306 31.916C16.0826 31.86 16.0666 31.788 16.0826 31.7L17.7386 23.9C17.7546 23.812 17.7986 23.74 17.8706 23.684C17.9426 23.628 18.0186 23.6 18.0986 23.6H23.4626C23.5506 23.6 23.6146 23.628 23.6546 23.684C23.7026 23.74 23.7186 23.812 23.7026 23.9L23.4746 24.92C23.4586 25.008 23.4186 25.08 23.3546 25.136C23.2906 25.192 23.2146 25.22 23.1266 25.22H19.3466L18.9026 27.248H22.4426C22.5306 27.248 22.5946 27.276 22.6346 27.332C22.6826 27.388 22.6986 27.46 22.6826 27.548L22.4666 28.568C22.4506 28.648 22.4066 28.716 22.3346 28.772C22.2706 28.828 22.1946 28.856 22.1066 28.856H18.5666L17.9546 31.7C17.9386 31.788 17.8986 31.86 17.8346 31.916C17.7706 31.972 17.6946 32 17.6066 32H16.3226Z" fill="white"/>
</svg>
