<svg width="21" height="21" viewBox="0 0 21 21" fill="none" xmlns="http://www.w3.org/2000/svg">
    <g clip-path="url(#clip0_1011_799)">
        <path
            d="M18.4228 13.1474C17.1965 13.1474 15.9924 12.9556 14.8514 12.5785C14.2819 12.3845 13.6359 12.5351 13.2637 12.9132L11.0115 14.6134C8.39961 13.2192 6.79074 11.6108 5.41556 9.01856L7.06569 6.82507C7.4944 6.39692 7.64817 5.77151 7.46394 5.18469C7.08525 4.03766 6.89288 2.83414 6.89288 1.6073C6.89293 0.721028 6.1719 0 5.28568 0H1.6072C0.721028 0 0 0.721028 0 1.6072C0 11.7657 8.26436 20.03 18.4228 20.03C19.309 20.03 20.0301 19.309 20.0301 18.4228V14.7546C20.03 13.8684 19.309 13.1474 18.4228 13.1474Z"
            fill="white" />
        <path
            d="M10.5019 4.68808C10.7078 4.6895 10.9081 4.72636 11.1028 4.79867C11.2988 4.86956 11.4753 4.98582 11.6322 5.14746C11.789 5.30767 11.9137 5.52248 12.0061 5.79187C12.0985 6.06125 12.1447 6.39445 12.1447 6.79144C12.1461 7.16575 12.1069 7.50036 12.0271 7.79527C11.9487 8.08876 11.8359 8.33688 11.6889 8.53964C11.5418 8.74239 11.3647 8.89693 11.1574 9.00327C10.9501 9.10961 10.7169 9.16278 10.4578 9.16278C10.1861 9.16278 9.94523 9.1089 9.73515 9.00114C9.52648 8.89339 9.35771 8.74593 9.22887 8.55878C9.10002 8.37162 9.02089 8.15753 8.99148 7.9165H9.75826C9.79748 8.08947 9.8773 8.227 9.99775 8.32909C10.1196 8.42975 10.273 8.48009 10.4578 8.48009C10.7561 8.48009 10.9858 8.34894 11.1469 8.08664C11.3079 7.82434 11.3885 7.45995 11.3885 6.99348H11.3591C11.2904 7.11825 11.2015 7.22601 11.0923 7.31675C10.983 7.40607 10.8591 7.47484 10.7204 7.52305C10.5832 7.57125 10.4375 7.59536 10.2835 7.59536C10.0314 7.59536 9.80448 7.53439 9.6028 7.41245C9.40253 7.29052 9.24357 7.12322 9.12593 6.91054C9.00969 6.69786 8.95086 6.4547 8.94946 6.18106C8.94946 5.89749 9.01389 5.64299 9.14273 5.41756C9.27298 5.1907 9.45435 5.01205 9.68683 4.88161C9.91932 4.74975 10.191 4.68524 10.5019 4.68808ZM10.504 5.32611C10.3528 5.32611 10.2162 5.36368 10.0944 5.43882C9.97394 5.51255 9.87871 5.61322 9.80868 5.74082C9.74005 5.86701 9.70574 6.00809 9.70574 6.16405C9.70714 6.31859 9.74145 6.45896 9.80868 6.58515C9.8773 6.71133 9.97044 6.81129 10.0881 6.88502C10.2071 6.95875 10.343 6.99561 10.4956 6.99561C10.6091 6.99561 10.7148 6.97363 10.8128 6.92968C10.9109 6.88573 10.9963 6.82476 11.0691 6.74678C11.1434 6.66738 11.2008 6.57735 11.2414 6.47668C11.2834 6.37601 11.3037 6.26968 11.3023 6.15767C11.3023 6.00879 11.2673 5.87126 11.1973 5.74508C11.1287 5.61889 11.0341 5.51751 10.9137 5.44095C10.7946 5.36439 10.6581 5.32611 10.504 5.32611Z"
            fill="white" />
        <path
            d="M14.3379 4.68808C14.5438 4.6895 14.7441 4.72636 14.9388 4.79867C15.1348 4.86956 15.3113 4.98582 15.4682 5.14746C15.625 5.30767 15.7497 5.52248 15.8421 5.79187C15.9345 6.06125 15.9808 6.39445 15.9808 6.79144C15.9822 7.16575 15.9429 7.50036 15.8631 7.79527C15.7847 8.08876 15.6719 8.33688 15.5249 8.53964C15.3778 8.74239 15.2007 8.89693 14.9934 9.00327C14.7861 9.10961 14.5529 9.16278 14.2938 9.16278C14.0221 9.16278 13.7812 9.1089 13.5712 9.00114C13.3625 8.89339 13.1937 8.74593 13.0649 8.55878C12.936 8.37162 12.8569 8.15753 12.8275 7.9165H13.5943C13.6335 8.08947 13.7133 8.227 13.8338 8.32909C13.9556 8.42975 14.109 8.48009 14.2938 8.48009C14.5921 8.48009 14.8218 8.34894 14.9829 8.08664C15.1439 7.82434 15.2245 7.45995 15.2245 6.99348H15.1951C15.1264 7.11825 15.0375 7.22601 14.9283 7.31675C14.819 7.40607 14.6951 7.47484 14.5564 7.52305C14.4192 7.57125 14.2735 7.59536 14.1195 7.59536C13.8674 7.59536 13.6405 7.53439 13.4388 7.41245C13.2385 7.29052 13.0796 7.12322 12.9619 6.91054C12.8457 6.69786 12.7869 6.4547 12.7855 6.18106C12.7855 5.89749 12.8499 5.64299 12.9787 5.41756C13.109 5.1907 13.2904 5.01205 13.5228 4.88161C13.7553 4.74975 14.027 4.68524 14.3379 4.68808ZM14.34 5.32611C14.1888 5.32611 14.0522 5.36368 13.9304 5.43882C13.81 5.51255 13.7147 5.61322 13.6447 5.74082C13.5761 5.86701 13.5418 6.00809 13.5418 6.16405C13.5432 6.31859 13.5775 6.45896 13.6447 6.58515C13.7133 6.71133 13.8065 6.81129 13.9241 6.88502C14.0431 6.95875 14.179 6.99561 14.3316 6.99561C14.4451 6.99561 14.5508 6.97363 14.6489 6.92968C14.7469 6.88573 14.8323 6.82476 14.9052 6.74678C14.9794 6.66738 15.0368 6.57735 15.0774 6.47668C15.1194 6.37601 15.1397 6.26968 15.1383 6.15767C15.1383 6.00879 15.1033 5.87126 15.0333 5.74508C14.9647 5.61889 14.8701 5.51751 14.7497 5.44095C14.6307 5.36439 14.4941 5.32611 14.34 5.32611Z"
            fill="white" />
        <path
            d="M18.174 4.68808C18.3798 4.6895 18.5801 4.72636 18.7748 4.79867C18.9709 4.86956 19.1473 4.98582 19.3042 5.14746C19.461 5.30767 19.5857 5.52248 19.6781 5.79187C19.7705 6.06125 19.8168 6.39445 19.8168 6.79144C19.8182 7.16575 19.779 7.50036 19.6991 7.79527C19.6207 8.08876 19.508 8.33688 19.3609 8.53964C19.2138 8.74239 19.0367 8.89693 18.8294 9.00327C18.6221 9.10961 18.3889 9.16278 18.1298 9.16278C17.8581 9.16278 17.6173 9.1089 17.4072 9.00114C17.1985 8.89339 17.0297 8.74593 16.9009 8.55878C16.772 8.37162 16.6929 8.15753 16.6635 7.9165H17.4303C17.4695 8.08947 17.5493 8.227 17.6698 8.32909C17.7916 8.42975 17.945 8.48009 18.1298 8.48009C18.4282 8.48009 18.6578 8.34894 18.8189 8.08664C18.98 7.82434 19.0605 7.45995 19.0605 6.99348H19.0311C18.9625 7.11825 18.8735 7.22601 18.7643 7.31675C18.655 7.40607 18.5311 7.47484 18.3924 7.52305C18.2552 7.57125 18.1095 7.59536 17.9555 7.59536C17.7034 7.59536 17.4765 7.53439 17.2748 7.41245C17.0746 7.29052 16.9156 7.12322 16.798 6.91054C16.6817 6.69786 16.6229 6.4547 16.6215 6.18106C16.6215 5.89749 16.6859 5.64299 16.8148 5.41756C16.945 5.1907 17.1264 5.01205 17.3589 4.88161C17.5913 4.74975 17.863 4.68524 18.174 4.68808ZM18.1761 5.32611C18.0248 5.32611 17.8883 5.36368 17.7664 5.43882C17.646 5.51255 17.5507 5.61322 17.4807 5.74082C17.4121 5.86701 17.3778 6.00809 17.3778 6.16405C17.3792 6.31859 17.4135 6.45896 17.4807 6.58515C17.5493 6.71133 17.6425 6.81129 17.7601 6.88502C17.8792 6.95875 18.015 6.99561 18.1677 6.99561C18.2811 6.99561 18.3868 6.97363 18.4849 6.92968C18.5829 6.88573 18.6683 6.82476 18.7412 6.74678C18.8154 6.66738 18.8728 6.57735 18.9134 6.47668C18.9555 6.37601 18.9758 6.26968 18.9744 6.15767C18.9744 6.00879 18.9393 5.87126 18.8693 5.74508C18.8007 5.61889 18.7062 5.51751 18.5857 5.44095C18.4667 5.36439 18.3301 5.32611 18.1761 5.32611Z"
            fill="white" />
        <path
            d="M10.5019 4.68808C10.7078 4.6895 10.9081 4.72636 11.1028 4.79867C11.2988 4.86956 11.4753 4.98582 11.6322 5.14746C11.789 5.30767 11.9137 5.52248 12.0061 5.79187C12.0985 6.06125 12.1447 6.39445 12.1447 6.79144C12.1461 7.16575 12.1069 7.50036 12.0271 7.79527C11.9487 8.08876 11.8359 8.33688 11.6889 8.53964C11.5418 8.74239 11.3647 8.89693 11.1574 9.00327C10.9501 9.10961 10.7169 9.16278 10.4578 9.16278C10.1861 9.16278 9.94523 9.1089 9.73515 9.00114C9.52648 8.89339 9.35771 8.74593 9.22887 8.55878C9.10002 8.37162 9.02089 8.15753 8.99148 7.9165H9.75826C9.79748 8.08947 9.8773 8.227 9.99775 8.32909C10.1196 8.42975 10.273 8.48009 10.4578 8.48009C10.7561 8.48009 10.9858 8.34894 11.1469 8.08664C11.3079 7.82434 11.3885 7.45995 11.3885 6.99348H11.3591C11.2904 7.11825 11.2015 7.22601 11.0923 7.31675C10.983 7.40607 10.8591 7.47484 10.7204 7.52305C10.5832 7.57125 10.4375 7.59536 10.2835 7.59536C10.0314 7.59536 9.80448 7.53439 9.6028 7.41245C9.40253 7.29052 9.24357 7.12322 9.12593 6.91054C9.00969 6.69786 8.95086 6.4547 8.94946 6.18106C8.94946 5.89749 9.01389 5.64299 9.14273 5.41756C9.27298 5.1907 9.45435 5.01205 9.68683 4.88161C9.91932 4.74975 10.191 4.68524 10.5019 4.68808ZM10.504 5.32611C10.3528 5.32611 10.2162 5.36368 10.0944 5.43882C9.97394 5.51255 9.87871 5.61322 9.80868 5.74082C9.74005 5.86701 9.70574 6.00809 9.70574 6.16405C9.70714 6.31859 9.74145 6.45896 9.80868 6.58515C9.8773 6.71133 9.97044 6.81129 10.0881 6.88502C10.2071 6.95875 10.343 6.99561 10.4956 6.99561C10.6091 6.99561 10.7148 6.97363 10.8128 6.92968C10.9109 6.88573 10.9963 6.82476 11.0691 6.74678C11.1434 6.66738 11.2008 6.57735 11.2414 6.47668C11.2834 6.37601 11.3037 6.26968 11.3023 6.15767C11.3023 6.00879 11.2673 5.87126 11.1973 5.74508C11.1287 5.61889 11.0341 5.51751 10.9137 5.44095C10.7946 5.36439 10.6581 5.32611 10.504 5.32611Z"
            stroke="white" stroke-width="0.2" />
        <path
            d="M14.3379 4.68808C14.5438 4.6895 14.7441 4.72636 14.9388 4.79867C15.1348 4.86956 15.3113 4.98582 15.4682 5.14746C15.625 5.30767 15.7497 5.52248 15.8421 5.79187C15.9345 6.06125 15.9808 6.39445 15.9808 6.79144C15.9822 7.16575 15.9429 7.50036 15.8631 7.79527C15.7847 8.08876 15.6719 8.33688 15.5249 8.53964C15.3778 8.74239 15.2007 8.89693 14.9934 9.00327C14.7861 9.10961 14.5529 9.16278 14.2938 9.16278C14.0221 9.16278 13.7812 9.1089 13.5712 9.00114C13.3625 8.89339 13.1937 8.74593 13.0649 8.55878C12.936 8.37162 12.8569 8.15753 12.8275 7.9165H13.5943C13.6335 8.08947 13.7133 8.227 13.8338 8.32909C13.9556 8.42975 14.109 8.48009 14.2938 8.48009C14.5921 8.48009 14.8218 8.34894 14.9829 8.08664C15.1439 7.82434 15.2245 7.45995 15.2245 6.99348H15.1951C15.1264 7.11825 15.0375 7.22601 14.9283 7.31675C14.819 7.40607 14.6951 7.47484 14.5564 7.52305C14.4192 7.57125 14.2735 7.59536 14.1195 7.59536C13.8674 7.59536 13.6405 7.53439 13.4388 7.41245C13.2385 7.29052 13.0796 7.12322 12.9619 6.91054C12.8457 6.69786 12.7869 6.4547 12.7855 6.18106C12.7855 5.89749 12.8499 5.64299 12.9787 5.41756C13.109 5.1907 13.2904 5.01205 13.5228 4.88161C13.7553 4.74975 14.027 4.68524 14.3379 4.68808ZM14.34 5.32611C14.1888 5.32611 14.0522 5.36368 13.9304 5.43882C13.81 5.51255 13.7147 5.61322 13.6447 5.74082C13.5761 5.86701 13.5418 6.00809 13.5418 6.16405C13.5432 6.31859 13.5775 6.45896 13.6447 6.58515C13.7133 6.71133 13.8065 6.81129 13.9241 6.88502C14.0431 6.95875 14.179 6.99561 14.3316 6.99561C14.4451 6.99561 14.5508 6.97363 14.6489 6.92968C14.7469 6.88573 14.8323 6.82476 14.9052 6.74678C14.9794 6.66738 15.0368 6.57735 15.0774 6.47668C15.1194 6.37601 15.1397 6.26968 15.1383 6.15767C15.1383 6.00879 15.1033 5.87126 15.0333 5.74508C14.9647 5.61889 14.8701 5.51751 14.7497 5.44095C14.6307 5.36439 14.4941 5.32611 14.34 5.32611Z"
            stroke="white" stroke-width="0.2" />
        <path
            d="M18.174 4.68808C18.3798 4.6895 18.5801 4.72636 18.7748 4.79867C18.9709 4.86956 19.1473 4.98582 19.3042 5.14746C19.461 5.30767 19.5857 5.52248 19.6781 5.79187C19.7705 6.06125 19.8168 6.39445 19.8168 6.79144C19.8182 7.16575 19.779 7.50036 19.6991 7.79527C19.6207 8.08876 19.508 8.33688 19.3609 8.53964C19.2138 8.74239 19.0367 8.89693 18.8294 9.00327C18.6221 9.10961 18.3889 9.16278 18.1298 9.16278C17.8581 9.16278 17.6173 9.1089 17.4072 9.00114C17.1985 8.89339 17.0297 8.74593 16.9009 8.55878C16.772 8.37162 16.6929 8.15753 16.6635 7.9165H17.4303C17.4695 8.08947 17.5493 8.227 17.6698 8.32909C17.7916 8.42975 17.945 8.48009 18.1298 8.48009C18.4282 8.48009 18.6578 8.34894 18.8189 8.08664C18.98 7.82434 19.0605 7.45995 19.0605 6.99348H19.0311C18.9625 7.11825 18.8735 7.22601 18.7643 7.31675C18.655 7.40607 18.5311 7.47484 18.3924 7.52305C18.2552 7.57125 18.1095 7.59536 17.9555 7.59536C17.7034 7.59536 17.4765 7.53439 17.2748 7.41245C17.0746 7.29052 16.9156 7.12322 16.798 6.91054C16.6817 6.69786 16.6229 6.4547 16.6215 6.18106C16.6215 5.89749 16.6859 5.64299 16.8148 5.41756C16.945 5.1907 17.1264 5.01205 17.3589 4.88161C17.5913 4.74975 17.863 4.68524 18.174 4.68808ZM18.1761 5.32611C18.0248 5.32611 17.8883 5.36368 17.7664 5.43882C17.646 5.51255 17.5507 5.61322 17.4807 5.74082C17.4121 5.86701 17.3778 6.00809 17.3778 6.16405C17.3792 6.31859 17.4135 6.45896 17.4807 6.58515C17.5493 6.71133 17.6425 6.81129 17.7601 6.88502C17.8792 6.95875 18.015 6.99561 18.1677 6.99561C18.2811 6.99561 18.3868 6.97363 18.4849 6.92968C18.5829 6.88573 18.6683 6.82476 18.7412 6.74678C18.8154 6.66738 18.8728 6.57735 18.9134 6.47668C18.9555 6.37601 18.9758 6.26968 18.9744 6.15767C18.9744 6.00879 18.9393 5.87126 18.8693 5.74508C18.8007 5.61889 18.7062 5.51751 18.5857 5.44095C18.4667 5.36439 18.3301 5.32611 18.1761 5.32611Z"
            stroke="white" stroke-width="0.2" />
    </g>
    <defs>
        <clipPath id="clip0_1011_799">
            <rect width="20.03" height="20.03" fill="white" />
        </clipPath>
    </defs>
</svg>
