<svg width="37" height="37" viewBox="0 0 37 37" fill="none" xmlns="http://www.w3.org/2000/svg">
<path d="M32.3557 10.3726C32.3557 8.84777 33.8037 7.05544 34.3603 6.4948C34.7836 6.07147 34.7836 5.38516 34.3603 4.96183L29.7161 0.317535C29.3254 -0.0732051 28.7032 -0.107531 28.272 0.237971L27.5963 0.779096C25.104 2.77247 21.5232 2.57396 19.2671 0.317607C19.0639 0.114252 18.7875 0 18.5 0C18.2126 0 17.9367 0.114252 17.7335 0.317607C15.4775 2.5741 11.8966 2.77247 9.40497 0.779602C8.99053 0.447686 8.72726 0.23732 8.72726 0.23732C8.29584 -0.107459 7.67428 -0.0728437 7.28397 0.317607L2.63968 4.96176C2.21743 5.38401 2.21758 6.06959 2.63831 6.49336C3.19627 7.05529 4.64425 8.8477 4.64425 10.3725C4.64425 13.0664 4.11794 14.3822 3.56078 15.7753C2.95179 17.2976 2.32214 18.8718 2.32214 21.9832C2.32214 28.4091 7.73325 30.8569 12.0811 32.8238C14.5141 33.9244 16.8121 34.964 17.5304 36.4008C17.7141 36.768 18.0894 37 18.5 37C18.9106 37 19.286 36.768 19.4695 36.4008C20.1879 34.964 22.4859 33.9244 24.9189 32.8238C29.2667 30.8569 34.6778 28.4091 34.6778 21.9832C34.6778 18.8718 34.0482 17.2976 33.4392 15.7753C32.882 14.3822 32.3557 13.0665 32.3557 10.3726ZM24.0253 30.8486C21.8761 31.8209 19.8187 32.7515 18.5 34.0969C17.1813 32.7515 15.1239 31.8209 12.9747 30.8486C8.80343 28.9616 4.49018 27.0104 4.49018 21.9832C4.49018 19.2893 5.0165 17.9735 5.57366 16.5804C6.18265 15.0581 6.8123 13.4839 6.8123 10.3725C6.8123 9.19168 6.36042 7.91511 5.46917 6.57827C5.26906 6.27822 5.06867 6.00896 4.88721 5.78024L8.13129 2.53616C11.6527 5.28406 15.9569 4.52491 18.5003 2.53002C21.0525 4.53199 25.3631 5.27127 28.869 2.53645L32.1129 5.78031C31.9314 6.0091 31.731 6.27829 31.5309 6.57834C30.6396 7.91518 30.1878 9.19175 30.1878 10.3726C30.1878 13.484 30.8174 15.0581 31.4264 16.5805C31.9836 17.9735 32.5099 19.2893 32.5099 21.9833C32.5099 27.0104 28.1966 28.9616 24.0253 30.8486Z" fill="#090364"/>
<path d="M26.3858 13.7548L21.6087 13.0606L19.4721 8.73165C19.2895 8.36165 18.9126 8.12744 18.5 8.12744C18.0874 8.12744 17.7106 8.36173 17.528 8.73173L15.3918 13.0605L10.6149 13.7547C10.2066 13.814 9.86728 14.1001 9.73987 14.4925C9.61232 14.8849 9.7187 15.3156 10.0142 15.6036L13.4707 18.9729L12.6544 23.7306C12.5847 24.1372 12.7518 24.5483 13.0856 24.7908C13.6479 25.1993 14.2133 24.8807 14.2272 24.8734L18.5001 22.6272L22.7729 24.8735C23.1382 25.0655 23.5807 25.0334 23.9144 24.791C24.2482 24.5485 24.4154 24.1375 24.3457 23.7308L23.53 18.9731L26.9866 15.6037C27.282 15.3157 27.3884 14.8849 27.2608 14.4925C27.1333 14.1001 26.7941 13.8141 26.3858 13.7548ZM21.6086 17.8183C21.3532 18.0674 21.2367 18.4261 21.297 18.7777L21.8378 21.9326L19.0045 20.4431C18.8466 20.3601 18.6734 20.3186 18.5001 20.3186C18.3269 20.3186 18.1536 20.3601 17.9958 20.4431L15.1628 21.9324L15.704 18.7779C15.7643 18.4262 15.6477 18.0674 15.3922 17.8183L13.1004 15.5843L16.2678 15.124C16.6209 15.0727 16.926 14.8509 17.0839 14.5309L18.5003 11.6607L19.917 14.531C20.075 14.851 20.3801 15.0727 20.7332 15.124L23.9007 15.5843L21.6086 17.8183Z" fill="#090364"/>
</svg>
