<svg width="25" height="25" viewBox="0 0 25 25" fill="none" xmlns="http://www.w3.org/2000/svg">
    <path
        d="M17.3528 12.2734C17.2573 12.2425 17.1536 12.2495 17.0632 12.2929C16.2041 12.7029 15.265 12.9175 14.3131 12.9215C13.3613 12.9254 12.4204 12.7185 11.558 12.3156C11.4664 12.272 11.3614 12.2658 11.2654 12.2984C10.1325 12.6837 9.11045 13.339 8.28744 14.2076C8.21866 14.2832 8.18226 14.3828 8.18606 14.485C8.18986 14.5871 8.23354 14.6837 8.30775 14.754C8.38195 14.8243 8.48076 14.8628 8.58297 14.8611C8.68518 14.8594 8.78265 14.8177 8.85447 14.7449C9.55421 14.0063 10.4154 13.4396 11.3706 13.0891C12.2859 13.4977 13.2777 13.707 14.2801 13.7031C15.3063 13.7062 16.3211 13.4886 17.2557 13.0649C18.5481 13.5163 19.6676 14.3593 20.4585 15.4766C21.2494 16.5939 21.6723 17.9301 21.6683 19.299V22.6495H9.74646C9.64419 22.6515 9.54678 22.6935 9.47515 22.7665C9.40352 22.8395 9.36339 22.9377 9.36339 23.04C9.36339 23.1423 9.40351 23.2405 9.47513 23.3135C9.54676 23.3865 9.64417 23.4285 9.74643 23.4305H22.0588C22.1623 23.4305 22.2617 23.3893 22.3349 23.3161C22.4081 23.2429 22.4493 23.1436 22.4493 23.04V19.299C22.4536 17.739 21.9623 16.218 21.0464 14.9554C20.1304 13.6927 18.837 12.7536 17.3528 12.2734Z"
        fill="#FF0000" />
    <path
        d="M17.2504 14.7437C18.1083 15.1559 18.832 15.8023 19.3381 16.6083C19.8442 17.4144 20.112 18.3471 20.1105 19.2989C20.1103 19.3503 20.1203 19.4012 20.1398 19.4487C20.1594 19.4962 20.1881 19.5394 20.2244 19.5758C20.2607 19.6122 20.3038 19.6411 20.3512 19.6608C20.3987 19.6805 20.4496 19.6906 20.501 19.6906C20.5524 19.6906 20.6032 19.6805 20.6507 19.6608C20.6981 19.6411 20.7412 19.6122 20.7775 19.5758C20.8138 19.5394 20.8425 19.4962 20.8621 19.4487C20.8816 19.4012 20.8916 19.3503 20.8915 19.2989C20.8931 18.1691 20.5662 17.0632 19.9504 16.1159C19.3347 15.1687 18.4567 14.421 17.4235 13.9639C17.3295 13.9223 17.2228 13.9197 17.1268 13.9566C16.2175 14.3036 15.2522 14.4807 14.2789 14.4791C14.2276 14.4789 14.1766 14.4889 14.1291 14.5084C14.0816 14.528 14.0384 14.5567 14.002 14.593C13.9656 14.6293 13.9368 14.6724 13.9171 14.7198C13.8973 14.7673 13.8872 14.8182 13.8872 14.8695C13.8872 14.9209 13.8973 14.9718 13.9171 15.0193C13.9368 15.0667 13.9656 15.1098 14.002 15.1461C14.0384 15.1824 14.0816 15.2111 14.1291 15.2307C14.1766 15.2502 14.2276 15.2602 14.2789 15.26C15.2919 15.2616 16.2973 15.0868 17.2504 14.7437Z"
        fill="#FF0000" />
    <path
        d="M14.2808 11.3696C15.2506 11.3696 16.1986 11.082 17.005 10.5432C17.8114 10.0044 18.4399 9.23854 18.811 8.34254C19.1822 7.44653 19.2793 6.46059 19.0901 5.50939C18.9009 4.5582 18.4338 3.68447 17.7481 2.9987C17.0623 2.31293 16.1885 1.84592 15.2374 1.65672C14.2862 1.46752 13.3002 1.56463 12.4042 1.93577C11.5082 2.30691 10.7424 2.93542 10.2036 3.7418C9.66477 4.54819 9.37719 5.49624 9.3772 6.46607C9.3787 7.76611 9.8958 9.01247 10.8151 9.93174C11.7343 10.851 12.9807 11.3681 14.2808 11.3696ZM14.2808 2.34351C15.0961 2.34351 15.8932 2.58529 16.5711 3.03828C17.2491 3.49127 17.7775 4.13513 18.0895 4.88842C18.4015 5.64172 18.4832 6.47063 18.3241 7.27032C18.165 8.07002 17.7724 8.80459 17.1958 9.38114C16.6193 9.95769 15.8847 10.3503 15.085 10.5094C14.2853 10.6685 13.4564 10.5868 12.7031 10.2748C11.9498 9.96277 11.306 9.43437 10.853 8.75642C10.4 8.07847 10.1582 7.28142 10.1582 6.46606C10.1594 5.37307 10.5942 4.32519 11.367 3.55233C12.1399 2.77947 13.1878 2.34474 14.2808 2.34351Z"
        fill="#FF0000" />
    <path
        d="M10.7316 18.9319V15.8834C10.7316 15.8146 10.7134 15.747 10.6788 15.6874C10.6443 15.6279 10.5946 15.5785 10.5348 15.5444C10.475 15.5102 10.4073 15.4925 10.3384 15.493C10.2696 15.4934 10.2021 15.5121 10.1428 15.5471C9.88228 15.6993 9.58577 15.7791 9.28402 15.7782C8.40349 15.7782 7.27604 15.34 7.00109 14.6879C6.9704 14.6181 6.92003 14.5587 6.85614 14.5169C6.79225 14.4752 6.71759 14.453 6.64129 14.453C6.56498 14.453 6.49033 14.4752 6.42643 14.5169C6.36254 14.5586 6.31217 14.618 6.28147 14.6879C6.00653 15.34 4.87907 15.7782 3.99854 15.7782C3.69673 15.7791 3.40015 15.6993 3.13956 15.5471C3.08025 15.5121 3.01276 15.4934 2.94392 15.493C2.87508 15.4925 2.80734 15.5102 2.74757 15.5444C2.68779 15.5785 2.63811 15.6279 2.60355 15.6874C2.56899 15.747 2.55079 15.8146 2.55078 15.8834V18.9319C2.55163 19.6063 2.7303 20.2685 3.06878 20.8517C3.40726 21.435 3.89357 21.9187 4.47866 22.254C4.54732 22.2636 6.61498 23.5435 6.6413 23.4304C6.68043 23.5231 8.72724 22.2803 8.80371 22.254C9.38881 21.9187 9.87513 21.435 10.2136 20.8517C10.5521 20.2685 10.7308 19.6063 10.7316 18.9319ZM8.41625 21.576L6.64129 22.5902L4.86612 21.576C4.40045 21.3091 4.0134 20.9241 3.74401 20.4599C3.47462 19.9957 3.33242 19.4686 3.33175 18.9319V16.469C3.91768 16.5927 4.52486 16.5725 5.10126 16.4101C5.67766 16.2477 6.2061 15.948 6.64128 15.5366C7.35834 16.2039 8.30452 16.5701 9.28401 16.5592C9.50925 16.5593 9.73347 16.529 9.95061 16.4692V18.9319C9.94994 19.4686 9.80774 19.9957 9.53835 20.4599C9.26896 20.9241 8.88191 21.3091 8.41625 21.576Z"
        fill="#FF0000" />
    <path
        d="M8.01766 17.3253L6.17424 19.7413L5.23077 18.7977C5.19452 18.7614 5.15147 18.7327 5.1041 18.7131C5.05672 18.6934 5.00595 18.6833 4.95467 18.6833C4.9034 18.6833 4.85262 18.6934 4.80525 18.7131C4.75787 18.7327 4.71483 18.7614 4.67857 18.7977C4.60535 18.8709 4.56421 18.9702 4.56421 19.0738C4.56421 19.1251 4.57431 19.1759 4.59393 19.2232C4.61355 19.2706 4.64232 19.3136 4.67857 19.3499L5.93778 20.6093C6.01102 20.6825 6.11032 20.7237 6.21387 20.7237C6.22247 20.7237 6.23123 20.7233 6.24 20.7227C6.29554 20.7191 6.34966 20.7035 6.39869 20.6772C6.44773 20.6508 6.49056 20.6143 6.52429 20.57L8.63847 17.799C8.66961 17.7582 8.69241 17.7117 8.70557 17.6621C8.71874 17.6126 8.722 17.5609 8.71518 17.51C8.70836 17.4592 8.69159 17.4102 8.66583 17.3658C8.64007 17.3215 8.60582 17.2826 8.56503 17.2515C8.52425 17.2204 8.47774 17.1976 8.42816 17.1845C8.37857 17.1714 8.32689 17.1682 8.27605 17.175C8.22522 17.1819 8.17623 17.1987 8.13189 17.2245C8.08756 17.2502 8.04875 17.2845 8.01766 17.3253Z"
        fill="#FF0000" />
</svg>
