<svg xmlns="http://www.w3.org/2000/svg" version="1.1" xmlns:xlink="http://www.w3.org/1999/xlink"
    width="512" height="512" x="0" y="0" viewBox="0 0 64 64"
    style="enable-background:new 0 0 512 512" xml:space="preserve" class=""><g transform="matrix(1.1600000000000004,0,0,1.1600000000000004,-5.120000000000012,-5.120000000000012)"><path d="M32 5a21 21 0 0 0-21 21c0 17 21 33 21 33s21-16 21-33A21 21 0 0 0 32 5zm-3.23 22.32L34.33 31a4 4 0 1 1-1.1 1.66L27.67 29a4 4 0 1 1 0-6l5.56-3.7a4 4 0 1 1 1.1 1.7l-5.56 3.7a3.92 3.92 0 0 1 0 2.62z" data-name="share location" fill="#000000" opacity="1" data-original="#000000" class=""></path></g></svg>